<svg width="3564" height="55" viewBox="0 0 3564 55" fill="none" xmlns="http://www.w3.org/2000/svg">
<path d="M37.536 1.432H39.036V-0.0680008H37.536V1.432ZM37.536 47V48.5H39.036V47H37.536ZM29.536 47H28.036V48.5H29.536V47ZM29.536 8.344H31.036V6.844H29.536V8.344ZM8.672 8.344V6.844H7.172V8.344H8.672ZM8.672 47V48.5H10.172V47H8.672ZM0.672 47H-0.828V48.5H0.672V47ZM0.672 1.432V-0.0680008H-0.828V1.432H0.672ZM36.036 1.432V47H39.036V1.432H36.036ZM37.536 45.5H29.536V48.5H37.536V45.5ZM31.036 47V8.344H28.036V47H31.036ZM29.536 6.844H8.672V9.844H29.536V6.844ZM7.172 8.344V47H10.172V8.344H7.172ZM8.672 45.5H0.672V48.5H8.672V45.5ZM2.172 47V1.432H-0.828V47H2.172ZM0.672 2.932H37.536V-0.0680008H0.672V2.932ZM47.1155 1.432V-0.0680008H45.6155V1.432H47.1155ZM78.4755 4.952L77.5152 6.10433L77.5247 6.11219L77.5342 6.11989L78.4755 4.952ZM78.7955 25.688L79.8296 26.7747L79.8386 26.7659L78.7955 25.688ZM55.1155 29.464V27.964H53.6155V29.464H55.1155ZM55.1155 47V48.5H56.6155V47H55.1155ZM47.1155 47H45.6155V48.5H47.1155V47ZM55.1155 8.088V6.588H53.6155V8.088H55.1155ZM55.1155 23H53.6155V24.5H55.1155V23ZM47.1155 2.932H66.8915V-0.0680008H47.1155V2.932ZM66.8915 2.932C71.5667 2.932 75.0481 4.04843 77.5152 6.10433L79.4358 3.79967C76.2709 1.16224 72.0297 -0.0680008 66.8915 -0.0680008V2.932ZM77.5342 6.11989C79.9516 8.06822 81.2635 11.0392 81.2635 15.32H84.2635C84.2635 10.3848 82.7168 6.44377 79.4168 3.78411L77.5342 6.11989ZM81.2635 15.32C81.2635 19.3457 80.0528 22.3839 77.7524 24.6101L79.8386 26.7659C82.8289 23.8721 84.2635 19.9983 84.2635 15.32H81.2635ZM77.7615 24.6014C75.4604 26.7911 72.2608 27.964 67.9795 27.964V30.964C72.8288 30.964 76.8399 29.6196 79.8295 26.7746L77.7615 24.6014ZM67.9795 27.964H55.1155V30.964H67.9795V27.964ZM53.6155 29.464V47H56.6155V29.464H53.6155ZM55.1155 45.5H47.1155V48.5H55.1155V45.5ZM48.6155 47V1.432H45.6155V47H48.6155ZM53.6155 8.088V23H56.6155V8.088H53.6155ZM55.1155 24.5H66.2515V21.5H55.1155V24.5ZM66.2515 24.5C69.3334 24.5 71.9248 23.842 73.7578 22.2651C75.6339 20.6511 76.4555 18.3031 76.4555 15.512H73.4555C73.4555 17.7129 72.8264 19.1089 71.8013 19.9909C70.7329 20.91 68.9723 21.5 66.2515 21.5V24.5ZM76.4555 15.512C76.4555 12.6991 75.5465 10.3556 73.5327 8.76647C71.5866 7.23076 68.8402 6.588 65.5475 6.588V9.588C68.5268 9.588 70.4844 10.1826 71.6743 11.1215C72.7965 12.0071 73.4555 13.3756 73.4555 15.512H76.4555ZM65.5475 6.588H55.1155V9.588H65.5475V6.588ZM125.003 7L123.89 8.00581L123.895 8.01142L123.9 8.01698L125.003 7ZM125.003 41.496L126.106 42.513L126.11 42.5077L125.003 41.496ZM93.323 41.496L92.215 42.5072L92.2204 42.513L93.323 41.496ZM93.195 7.128L92.0675 6.13874L92.0668 6.13948L93.195 7.128ZM99.147 11.736L100.307 12.6868L100.314 12.6789L99.147 11.736ZM99.083 36.696L97.9085 37.6291L97.9164 37.6389L99.083 36.696ZM119.243 36.696L118.07 35.7609L118.069 35.7629L119.243 36.696ZM119.243 11.736L118.069 12.6691L118.076 12.678L118.083 12.6867L119.243 11.736ZM109.323 1.844C115.378 1.844 120.188 3.90939 123.89 8.00581L126.116 5.99419C121.797 1.21594 116.153 -1.156 109.323 -1.156V1.844ZM123.9 8.01698C127.652 12.0847 129.583 17.4363 129.583 24.216H132.583C132.583 16.8303 130.461 10.7046 126.106 5.98302L123.9 8.01698ZM129.583 24.216C129.583 30.9952 127.652 36.3717 123.896 40.4843L126.11 42.5077C130.46 37.7456 132.583 31.6021 132.583 24.216H129.583ZM123.9 40.479C120.157 44.5378 115.301 46.588 109.195 46.588V49.588C116.06 49.588 121.742 47.2435 126.106 42.513L123.9 40.479ZM109.195 46.588C103.043 46.588 98.1671 44.5356 94.4256 40.479L92.2204 42.513C96.5856 47.2457 102.291 49.588 109.195 49.588V46.588ZM94.431 40.4849C90.7206 36.4193 88.807 31.0453 88.807 24.216H85.807C85.807 31.6374 87.904 37.7834 92.215 42.5071L94.431 40.4849ZM88.807 24.216C88.807 17.6058 90.6754 12.2798 94.3232 8.11652L92.0668 6.13948C87.8639 10.9362 85.807 17.0022 85.807 24.216H88.807ZM94.3225 8.11726C97.9676 3.96267 102.909 1.844 109.323 1.844V-1.156C102.169 -1.156 96.3584 1.24799 92.0675 6.13874L94.3225 8.11726ZM109.195 5.564C104.584 5.564 100.797 7.30854 97.9804 10.7931L100.314 12.6789C102.532 9.93413 105.444 8.564 109.195 8.564V5.564ZM97.9868 10.7853C95.1912 14.1969 93.871 18.684 93.871 24.088H96.871C96.871 19.1667 98.0682 15.4191 100.307 12.6867L97.9868 10.7853ZM93.871 24.088C93.871 29.6056 95.1627 34.1731 97.9086 37.6291L100.257 35.7629C98.054 32.9896 96.871 29.1517 96.871 24.088H93.871ZM97.9164 37.6389C100.742 41.1355 104.6 42.868 109.323 42.868V39.868C105.427 39.868 102.458 38.4858 100.25 35.7531L97.9164 37.6389ZM109.323 42.868C113.898 42.868 117.645 41.1184 120.417 37.6291L118.069 35.7629C115.892 38.503 113.026 39.868 109.323 39.868V42.868ZM120.416 37.6311C123.2 34.1396 124.519 29.5977 124.519 24.152H121.519C121.519 29.117 120.321 32.9377 118.07 35.7609L120.416 37.6311ZM124.519 24.152C124.519 18.7088 123.201 14.1989 120.403 10.7853L118.083 12.6867C120.32 15.4171 121.519 19.1845 121.519 24.152H124.519ZM120.417 10.8029C117.639 7.30528 113.844 5.564 109.195 5.564V8.564C112.994 8.564 115.898 9.93738 118.069 12.6691L120.417 10.8029ZM171.068 1.432H172.568V-0.0680008H171.068V1.432ZM171.068 8.152V9.652H172.568V8.152H171.068ZM146.172 8.152V6.652H144.672V8.152H146.172ZM146.172 20.248H144.672V21.748H146.172V20.248ZM169.276 20.248H170.776V18.748H169.276V20.248ZM169.276 26.712V28.212H170.776V26.712H169.276ZM146.172 26.712V25.212H144.672V26.712H146.172ZM146.172 40.152H144.672V41.652H146.172V40.152ZM171.452 40.152H172.952V38.652H171.452V40.152ZM171.452 47V48.5H172.952V47H171.452ZM138.236 47H136.736V48.5H138.236V47ZM138.236 1.432V-0.0680008H136.736V1.432H138.236ZM169.568 1.432V8.152H172.568V1.432H169.568ZM171.068 6.652H146.172V9.652H171.068V6.652ZM144.672 8.152V20.248H147.672V8.152H144.672ZM146.172 21.748H169.276V18.748H146.172V21.748ZM167.776 20.248V26.712H170.776V20.248H167.776ZM169.276 25.212H146.172V28.212H169.276V25.212ZM144.672 26.712V40.152H147.672V26.712H144.672ZM146.172 41.652H171.452V38.652H146.172V41.652ZM169.952 40.152V47H172.952V40.152H169.952ZM171.452 45.5H138.236V48.5H171.452V45.5ZM139.736 47V1.432H136.736V47H139.736ZM138.236 2.932H171.068V-0.0680008H138.236V2.932ZM216.757 1.432L217.815 2.49452L220.387 -0.0680008H216.757V1.432ZM198.517 19.608L197.458 18.5455L196.56 19.4402L197.292 20.4747L198.517 19.608ZM217.909 47V48.5H220.808L219.133 46.1333L217.909 47ZM207.989 47L206.752 47.8487L207.199 48.5H207.989V47ZM193.013 25.176L194.249 24.3273L193.228 22.8391L191.952 24.1153L193.013 25.176ZM186.485 31.704L185.424 30.6433L184.985 31.0827V31.704H186.485ZM186.485 47V48.5H187.985V47H186.485ZM178.549 47H177.049V48.5H178.549V47ZM178.549 1.432V-0.0680008H177.049V1.432H178.549ZM186.485 1.432H187.985V-0.0680008H186.485V1.432ZM186.485 22.104H184.985V25.7905L187.558 23.1513L186.485 22.104ZM206.645 1.432V-0.0680008H206.012L205.571 0.384721L206.645 1.432ZM215.698 0.369477L197.458 18.5455L199.575 20.6705L217.815 2.49452L215.698 0.369477ZM197.292 20.4747L216.684 47.8667L219.133 46.1333L199.741 18.7413L197.292 20.4747ZM217.909 45.5H207.989V48.5H217.909V45.5ZM209.225 46.1513L194.249 24.3273L191.776 26.0247L206.752 47.8487L209.225 46.1513ZM191.952 24.1153L185.424 30.6433L187.545 32.7647L194.073 26.2367L191.952 24.1153ZM184.985 31.704V47H187.985V31.704H184.985ZM186.485 45.5H178.549V48.5H186.485V45.5ZM180.049 47V1.432H177.049V47H180.049ZM178.549 2.932H186.485V-0.0680008H178.549V2.932ZM184.985 1.432V22.104H187.985V1.432H184.985ZM187.558 23.1513L207.718 2.47928L205.571 0.384721L185.411 21.0567L187.558 23.1513ZM206.645 2.932H216.757V-0.0680008H206.645V2.932ZM255.129 1.432H256.629V-0.0680008H255.129V1.432ZM255.129 8.344V9.844H256.629V8.344H255.129ZM240.601 8.344V6.844H239.101V8.344H240.601ZM240.601 47V48.5H242.101V47H240.601ZM232.601 47H231.101V48.5H232.601V47ZM232.601 8.344H234.101V6.844H232.601V8.344ZM218.073 8.344H216.573V9.844H218.073V8.344ZM218.073 1.432V-0.0680008H216.573V1.432H218.073ZM253.629 1.432V8.344H256.629V1.432H253.629ZM255.129 6.844H240.601V9.844H255.129V6.844ZM239.101 8.344V47H242.101V8.344H239.101ZM240.601 45.5H232.601V48.5H240.601V45.5ZM234.101 47V8.344H231.101V47H234.101ZM232.601 6.844H218.073V9.844H232.601V6.844ZM219.573 8.344V1.432H216.573V8.344H219.573ZM218.073 2.932H255.129V-0.0680008H218.073V2.932ZM290.763 43.352L291.769 44.4643L291.77 44.4635L290.763 43.352ZM260.427 47H258.927V48.5H260.427V47ZM260.427 1.432V-0.0680008H258.927V1.432H260.427ZM268.427 1.432H269.927V-0.0680008H268.427V1.432ZM268.427 18.84H266.927V20.34H268.427V18.84ZM290.826 22.488L289.82 23.6003L289.82 23.6003L290.826 22.488ZM284.747 27.416L285.791 26.3391L285.791 26.3391L284.747 27.416ZM268.427 25.368V23.868H266.927V25.368H268.427ZM268.427 40.472H266.927V41.972H268.427V40.472ZM300.235 1.432V-0.0680008H298.735V1.432H300.235ZM308.235 1.432H309.735V-0.0680008H308.235V1.432ZM308.235 47V48.5H309.735V47H308.235ZM300.235 47H298.735V48.5H300.235V47ZM293.359 32.856C293.359 37.0591 292.103 40.1132 289.755 42.2405L291.77 44.4635C294.884 41.6415 296.359 37.6982 296.359 32.856H293.359ZM289.756 42.2397C287.431 44.3433 284.021 45.5 279.307 45.5V48.5C284.491 48.5 288.718 47.2247 291.769 44.4643L289.756 42.2397ZM279.307 45.5H260.427V48.5H279.307V45.5ZM261.927 47V1.432H258.927V47H261.927ZM260.427 2.932H268.427V-0.0680008H260.427V2.932ZM266.927 1.432V18.84H269.927V1.432H266.927ZM268.427 20.34H279.307V17.34H268.427V20.34ZM279.307 20.34C284.068 20.34 287.497 21.4986 289.82 23.6003L291.833 21.3757C288.78 18.6134 284.529 17.34 279.307 17.34V20.34ZM289.82 23.6003C292.122 25.6829 293.359 28.6921 293.359 32.856H296.359C296.359 28.0599 294.907 24.1571 291.833 21.3757L289.82 23.6003ZM288.359 33.048C288.359 30.3476 287.552 28.0468 285.791 26.3391L283.702 28.4928C284.757 29.5159 285.359 30.9697 285.359 33.048H288.359ZM285.791 26.3391C284.03 24.6316 281.651 23.868 278.859 23.868V26.868C281.101 26.868 282.647 27.4697 283.702 28.4928L285.791 26.3391ZM278.859 23.868H268.427V26.868H278.859V23.868ZM266.927 25.368V40.472H269.927V25.368H266.927ZM268.427 41.972H278.987V38.972H268.427V41.972ZM278.987 41.972C281.821 41.972 284.225 41.3055 285.92 39.7073C287.631 38.0935 288.359 35.7771 288.359 33.048H285.359C285.359 35.2683 284.774 36.6638 283.861 37.5247C282.932 38.4012 281.4 38.972 278.987 38.972V41.972ZM300.235 2.932H308.235V-0.0680008H300.235V2.932ZM306.735 1.432V47H309.735V1.432H306.735ZM308.235 45.5H300.235V48.5H308.235V45.5ZM301.735 47V1.432H298.735V47H301.735ZM312.938 55H311.438V56.5H312.938V55ZM312.938 51.8V50.3H311.438V51.8H312.938ZM344.938 51.8H346.438V50.3H344.938V51.8ZM344.938 55V56.5H346.438V55H344.938ZM314.438 55V51.8H311.438V55H314.438ZM312.938 53.3H344.938V50.3H312.938V53.3ZM343.438 51.8V55H346.438V51.8H343.438ZM344.938 53.5H312.938V56.5H344.938V53.5ZM439.911 1.432H441.411V-0.0680008H439.911V1.432ZM439.911 47V48.5H441.411V47H439.911ZM431.911 47H430.411V48.5H431.911V47ZM431.911 8.344H433.411V6.844H431.911V8.344ZM411.047 8.344V6.844H409.547V8.344H411.047ZM411.047 47V48.5H412.547V47H411.047ZM403.047 47H401.547V48.5H403.047V47ZM403.047 1.432V-0.0680008H401.547V1.432H403.047ZM438.411 1.432V47H441.411V1.432H438.411ZM439.911 45.5H431.911V48.5H439.911V45.5ZM433.411 47V8.344H430.411V47H433.411ZM431.911 6.844H411.047V9.844H431.911V6.844ZM409.547 8.344V47H412.547V8.344H409.547ZM411.047 45.5H403.047V48.5H411.047V45.5ZM404.547 47V1.432H401.547V47H404.547ZM403.047 2.932H439.911V-0.0680008H403.047V2.932ZM449.491 1.432V-0.0680008H447.991V1.432H449.491ZM480.851 4.952L479.89 6.10433L479.9 6.11219L479.909 6.11989L480.851 4.952ZM481.171 25.688L482.205 26.7747L482.214 26.7659L481.171 25.688ZM457.491 29.464V27.964H455.991V29.464H457.491ZM457.491 47V48.5H458.991V47H457.491ZM449.491 47H447.991V48.5H449.491V47ZM457.491 8.088V6.588H455.991V8.088H457.491ZM457.491 23H455.991V24.5H457.491V23ZM449.491 2.932H469.267V-0.0680008H449.491V2.932ZM469.267 2.932C473.942 2.932 477.423 4.04843 479.89 6.10433L481.811 3.79967C478.646 1.16224 474.405 -0.0680008 469.267 -0.0680008V2.932ZM479.909 6.11989C482.327 8.06822 483.639 11.0392 483.639 15.32H486.639C486.639 10.3848 485.092 6.44377 481.792 3.78411L479.909 6.11989ZM483.639 15.32C483.639 19.3457 482.428 22.3839 480.127 24.6101L482.214 26.7659C485.204 23.8721 486.639 19.9983 486.639 15.32H483.639ZM480.136 24.6014C477.835 26.7911 474.636 27.964 470.355 27.964V30.964C475.204 30.964 479.215 29.6196 482.205 26.7746L480.136 24.6014ZM470.355 27.964H457.491V30.964H470.355V27.964ZM455.991 29.464V47H458.991V29.464H455.991ZM457.491 45.5H449.491V48.5H457.491V45.5ZM450.991 47V1.432H447.991V47H450.991ZM455.991 8.088V23H458.991V8.088H455.991ZM457.491 24.5H468.627V21.5H457.491V24.5ZM468.627 24.5C471.708 24.5 474.3 23.842 476.133 22.2651C478.009 20.6511 478.831 18.3031 478.831 15.512H475.831C475.831 17.7129 475.201 19.1089 474.176 19.9909C473.108 20.91 471.347 21.5 468.627 21.5V24.5ZM478.831 15.512C478.831 12.6991 477.922 10.3556 475.908 8.76647C473.962 7.23076 471.215 6.588 467.923 6.588V9.588C470.902 9.588 472.859 10.1826 474.049 11.1215C475.171 12.0071 475.831 13.3756 475.831 15.512H478.831ZM467.923 6.588H457.491V9.588H467.923V6.588ZM527.378 7L526.265 8.00581L526.27 8.01142L526.275 8.01698L527.378 7ZM527.378 41.496L528.481 42.513L528.485 42.5077L527.378 41.496ZM495.698 41.496L494.59 42.5072L494.595 42.513L495.698 41.496ZM495.57 7.128L494.442 6.13874L494.442 6.13948L495.57 7.128ZM501.522 11.736L502.682 12.6868L502.689 12.6789L501.522 11.736ZM501.458 36.696L500.284 37.6291L500.291 37.6389L501.458 36.696ZM521.618 36.696L520.445 35.7609L520.444 35.7629L521.618 36.696ZM521.618 11.736L520.444 12.6691L520.451 12.678L520.458 12.6867L521.618 11.736ZM511.698 1.844C517.753 1.844 522.563 3.90939 526.265 8.00581L528.491 5.99419C524.172 1.21594 518.528 -1.156 511.698 -1.156V1.844ZM526.275 8.01698C530.027 12.0847 531.958 17.4363 531.958 24.216H534.958C534.958 16.8303 532.836 10.7046 528.481 5.98302L526.275 8.01698ZM531.958 24.216C531.958 30.9952 530.027 36.3717 526.271 40.4843L528.485 42.5077C532.835 37.7456 534.958 31.6021 534.958 24.216H531.958ZM526.275 40.479C522.532 44.5378 517.676 46.588 511.57 46.588V49.588C518.435 49.588 524.117 47.2435 528.481 42.513L526.275 40.479ZM511.57 46.588C505.418 46.588 500.542 44.5356 496.801 40.479L494.595 42.513C498.961 47.2457 504.666 49.588 511.57 49.588V46.588ZM496.806 40.4849C493.096 36.4193 491.182 31.0453 491.182 24.216H488.182C488.182 31.6374 490.279 37.7834 494.59 42.5071L496.806 40.4849ZM491.182 24.216C491.182 17.6058 493.05 12.2798 496.698 8.11652L494.442 6.13948C490.239 10.9362 488.182 17.0022 488.182 24.216H491.182ZM496.698 8.11726C500.343 3.96267 505.284 1.844 511.698 1.844V-1.156C504.544 -1.156 498.733 1.24799 494.442 6.13874L496.698 8.11726ZM511.57 5.564C506.959 5.564 503.172 7.30854 500.355 10.7931L502.689 12.6789C504.907 9.93413 507.819 8.564 511.57 8.564V5.564ZM500.362 10.7853C497.566 14.1969 496.246 18.684 496.246 24.088H499.246C499.246 19.1667 500.443 15.4191 502.682 12.6867L500.362 10.7853ZM496.246 24.088C496.246 29.6056 497.538 34.1731 500.284 37.6291L502.632 35.7629C500.429 32.9896 499.246 29.1517 499.246 24.088H496.246ZM500.291 37.6389C503.117 41.1355 506.975 42.868 511.698 42.868V39.868C507.802 39.868 504.833 38.4858 502.625 35.7531L500.291 37.6389ZM511.698 42.868C516.273 42.868 520.02 41.1184 522.792 37.6291L520.444 35.7629C518.267 38.503 515.401 39.868 511.698 39.868V42.868ZM522.791 37.6311C525.575 34.1396 526.894 29.5977 526.894 24.152H523.894C523.894 29.117 522.696 32.9377 520.445 35.7609L522.791 37.6311ZM526.894 24.152C526.894 18.7088 525.576 14.1989 522.778 10.7853L520.458 12.6867C522.695 15.4171 523.894 19.1845 523.894 24.152H526.894ZM522.792 10.8029C520.014 7.30528 516.219 5.564 511.57 5.564V8.564C515.369 8.564 518.273 9.93738 520.444 12.6691L522.792 10.8029ZM573.443 1.432H574.943V-0.0680008H573.443V1.432ZM573.443 8.152V9.652H574.943V8.152H573.443ZM548.547 8.152V6.652H547.047V8.152H548.547ZM548.547 20.248H547.047V21.748H548.547V20.248ZM571.651 20.248H573.151V18.748H571.651V20.248ZM571.651 26.712V28.212H573.151V26.712H571.651ZM548.547 26.712V25.212H547.047V26.712H548.547ZM548.547 40.152H547.047V41.652H548.547V40.152ZM573.827 40.152H575.327V38.652H573.827V40.152ZM573.827 47V48.5H575.327V47H573.827ZM540.611 47H539.111V48.5H540.611V47ZM540.611 1.432V-0.0680008H539.111V1.432H540.611ZM571.943 1.432V8.152H574.943V1.432H571.943ZM573.443 6.652H548.547V9.652H573.443V6.652ZM547.047 8.152V20.248H550.047V8.152H547.047ZM548.547 21.748H571.651V18.748H548.547V21.748ZM570.151 20.248V26.712H573.151V20.248H570.151ZM571.651 25.212H548.547V28.212H571.651V25.212ZM547.047 26.712V40.152H550.047V26.712H547.047ZM548.547 41.652H573.827V38.652H548.547V41.652ZM572.327 40.152V47H575.327V40.152H572.327ZM573.827 45.5H540.611V48.5H573.827V45.5ZM542.111 47V1.432H539.111V47H542.111ZM540.611 2.932H573.443V-0.0680008H540.611V2.932ZM619.132 1.432L620.19 2.49452L622.762 -0.0680008H619.132V1.432ZM600.892 19.608L599.833 18.5455L598.935 19.4402L599.667 20.4747L600.892 19.608ZM620.284 47V48.5H623.183L621.508 46.1333L620.284 47ZM610.364 47L609.127 47.8487L609.574 48.5H610.364V47ZM595.388 25.176L596.624 24.3273L595.603 22.8391L594.327 24.1153L595.388 25.176ZM588.86 31.704L587.799 30.6433L587.36 31.0827V31.704H588.86ZM588.86 47V48.5H590.36V47H588.86ZM580.924 47H579.424V48.5H580.924V47ZM580.924 1.432V-0.0680008H579.424V1.432H580.924ZM588.86 1.432H590.36V-0.0680008H588.86V1.432ZM588.86 22.104H587.36V25.7905L589.933 23.1513L588.86 22.104ZM609.02 1.432V-0.0680008H608.387L607.946 0.384721L609.02 1.432ZM618.073 0.369477L599.833 18.5455L601.95 20.6705L620.19 2.49452L618.073 0.369477ZM599.667 20.4747L619.059 47.8667L621.508 46.1333L602.116 18.7413L599.667 20.4747ZM620.284 45.5H610.364V48.5H620.284V45.5ZM611.6 46.1513L596.624 24.3273L594.151 26.0247L609.127 47.8487L611.6 46.1513ZM594.327 24.1153L587.799 30.6433L589.92 32.7647L596.448 26.2367L594.327 24.1153ZM587.36 31.704V47H590.36V31.704H587.36ZM588.86 45.5H580.924V48.5H588.86V45.5ZM582.424 47V1.432H579.424V47H582.424ZM580.924 2.932H588.86V-0.0680008H580.924V2.932ZM587.36 1.432V22.104H590.36V1.432H587.36ZM589.933 23.1513L610.093 2.47928L607.946 0.384721L587.786 21.0567L589.933 23.1513ZM609.02 2.932H619.132V-0.0680008H609.02V2.932ZM657.504 1.432H659.004V-0.0680008H657.504V1.432ZM657.504 8.344V9.844H659.004V8.344H657.504ZM642.976 8.344V6.844H641.476V8.344H642.976ZM642.976 47V48.5H644.476V47H642.976ZM634.976 47H633.476V48.5H634.976V47ZM634.976 8.344H636.476V6.844H634.976V8.344ZM620.448 8.344H618.948V9.844H620.448V8.344ZM620.448 1.432V-0.0680008H618.948V1.432H620.448ZM656.004 1.432V8.344H659.004V1.432H656.004ZM657.504 6.844H642.976V9.844H657.504V6.844ZM641.476 8.344V47H644.476V8.344H641.476ZM642.976 45.5H634.976V48.5H642.976V45.5ZM636.476 47V8.344H633.476V47H636.476ZM634.976 6.844H620.448V9.844H634.976V6.844ZM621.948 8.344V1.432H618.948V8.344H621.948ZM620.448 2.932H657.504V-0.0680008H620.448V2.932ZM693.138 43.352L694.144 44.4643L694.145 44.4635L693.138 43.352ZM662.802 47H661.302V48.5H662.802V47ZM662.802 1.432V-0.0680008H661.302V1.432H662.802ZM670.802 1.432H672.302V-0.0680008H670.802V1.432ZM670.802 18.84H669.302V20.34H670.802V18.84ZM693.201 22.488L692.195 23.6003L692.195 23.6003L693.201 22.488ZM687.122 27.416L688.166 26.3391L688.166 26.3391L687.122 27.416ZM670.802 25.368V23.868H669.302V25.368H670.802ZM670.802 40.472H669.302V41.972H670.802V40.472ZM702.61 1.432V-0.0680008H701.11V1.432H702.61ZM710.61 1.432H712.11V-0.0680008H710.61V1.432ZM710.61 47V48.5H712.11V47H710.61ZM702.61 47H701.11V48.5H702.61V47ZM695.734 32.856C695.734 37.0591 694.478 40.1132 692.13 42.2405L694.145 44.4635C697.259 41.6415 698.734 37.6982 698.734 32.856H695.734ZM692.131 42.2397C689.806 44.3433 686.396 45.5 681.682 45.5V48.5C686.866 48.5 691.093 47.2247 694.144 44.4643L692.131 42.2397ZM681.682 45.5H662.802V48.5H681.682V45.5ZM664.302 47V1.432H661.302V47H664.302ZM662.802 2.932H670.802V-0.0680008H662.802V2.932ZM669.302 1.432V18.84H672.302V1.432H669.302ZM670.802 20.34H681.682V17.34H670.802V20.34ZM681.682 20.34C686.443 20.34 689.872 21.4986 692.195 23.6003L694.208 21.3757C691.155 18.6134 686.904 17.34 681.682 17.34V20.34ZM692.195 23.6003C694.497 25.6829 695.734 28.6921 695.734 32.856H698.734C698.734 28.0599 697.282 24.1571 694.208 21.3757L692.195 23.6003ZM690.734 33.048C690.734 30.3476 689.927 28.0468 688.166 26.3391L686.077 28.4928C687.132 29.5159 687.734 30.9697 687.734 33.048H690.734ZM688.166 26.3391C686.405 24.6316 684.026 23.868 681.234 23.868V26.868C683.476 26.868 685.022 27.4697 686.077 28.4928L688.166 26.3391ZM681.234 23.868H670.802V26.868H681.234V23.868ZM669.302 25.368V40.472H672.302V25.368H669.302ZM670.802 41.972H681.362V38.972H670.802V41.972ZM681.362 41.972C684.196 41.972 686.6 41.3055 688.295 39.7073C690.006 38.0935 690.734 35.7771 690.734 33.048H687.734C687.734 35.2683 687.149 36.6638 686.236 37.5247C685.307 38.4012 683.775 38.972 681.362 38.972V41.972ZM702.61 2.932H710.61V-0.0680008H702.61V2.932ZM709.11 1.432V47H712.11V1.432H709.11ZM710.61 45.5H702.61V48.5H710.61V45.5ZM704.11 47V1.432H701.11V47H704.11ZM715.312 55H713.812V56.5H715.312V55ZM715.312 51.8V50.3H713.812V51.8H715.312ZM747.312 51.8H748.812V50.3H747.312V51.8ZM747.312 55V56.5H748.812V55H747.312ZM716.812 55V51.8H713.812V55H716.812ZM715.312 53.3H747.312V50.3H715.312V53.3ZM745.812 51.8V55H748.812V51.8H745.812ZM747.312 53.5H715.312V56.5H747.312V53.5ZM842.286 1.432H843.786V-0.0680008H842.286V1.432ZM842.286 47V48.5H843.786V47H842.286ZM834.286 47H832.786V48.5H834.286V47ZM834.286 8.344H835.786V6.844H834.286V8.344ZM813.422 8.344V6.844H811.922V8.344H813.422ZM813.422 47V48.5H814.922V47H813.422ZM805.422 47H803.922V48.5H805.422V47ZM805.422 1.432V-0.0680008H803.922V1.432H805.422ZM840.786 1.432V47H843.786V1.432H840.786ZM842.286 45.5H834.286V48.5H842.286V45.5ZM835.786 47V8.344H832.786V47H835.786ZM834.286 6.844H813.422V9.844H834.286V6.844ZM811.922 8.344V47H814.922V8.344H811.922ZM813.422 45.5H805.422V48.5H813.422V45.5ZM806.922 47V1.432H803.922V47H806.922ZM805.422 2.932H842.286V-0.0680008H805.422V2.932ZM851.866 1.432V-0.0680008H850.366V1.432H851.866ZM883.226 4.952L882.265 6.10433L882.275 6.11219L882.284 6.11989L883.226 4.952ZM883.546 25.688L884.58 26.7747L884.589 26.7659L883.546 25.688ZM859.866 29.464V27.964H858.366V29.464H859.866ZM859.866 47V48.5H861.366V47H859.866ZM851.866 47H850.366V48.5H851.866V47ZM859.866 8.088V6.588H858.366V8.088H859.866ZM859.866 23H858.366V24.5H859.866V23ZM851.866 2.932H871.642V-0.0680008H851.866V2.932ZM871.642 2.932C876.317 2.932 879.798 4.04843 882.265 6.10433L884.186 3.79967C881.021 1.16224 876.78 -0.0680008 871.642 -0.0680008V2.932ZM882.284 6.11989C884.702 8.06822 886.014 11.0392 886.014 15.32H889.014C889.014 10.3848 887.467 6.44377 884.167 3.78411L882.284 6.11989ZM886.014 15.32C886.014 19.3457 884.803 22.3839 882.502 24.6101L884.589 26.7659C887.579 23.8721 889.014 19.9983 889.014 15.32H886.014ZM882.511 24.6014C880.21 26.7911 877.011 27.964 872.73 27.964V30.964C877.579 30.964 881.59 29.6196 884.58 26.7746L882.511 24.6014ZM872.73 27.964H859.866V30.964H872.73V27.964ZM858.366 29.464V47H861.366V29.464H858.366ZM859.866 45.5H851.866V48.5H859.866V45.5ZM853.366 47V1.432H850.366V47H853.366ZM858.366 8.088V23H861.366V8.088H858.366ZM859.866 24.5H871.002V21.5H859.866V24.5ZM871.002 24.5C874.083 24.5 876.675 23.842 878.508 22.2651C880.384 20.6511 881.206 18.3031 881.206 15.512H878.206C878.206 17.7129 877.576 19.1089 876.551 19.9909C875.483 20.91 873.722 21.5 871.002 21.5V24.5ZM881.206 15.512C881.206 12.6991 880.297 10.3556 878.283 8.76647C876.337 7.23076 873.59 6.588 870.298 6.588V9.588C873.277 9.588 875.234 10.1826 876.424 11.1215C877.546 12.0071 878.206 13.3756 878.206 15.512H881.206ZM870.298 6.588H859.866V9.588H870.298V6.588ZM929.753 7L928.64 8.00581L928.645 8.01142L928.65 8.01698L929.753 7ZM929.753 41.496L930.856 42.513L930.86 42.5077L929.753 41.496ZM898.073 41.496L896.965 42.5072L896.97 42.513L898.073 41.496ZM897.945 7.128L896.817 6.13874L896.817 6.13948L897.945 7.128ZM903.897 11.736L905.057 12.6868L905.064 12.6789L903.897 11.736ZM903.833 36.696L902.659 37.6291L902.666 37.6389L903.833 36.696ZM923.993 36.696L922.82 35.7609L922.819 35.7629L923.993 36.696ZM923.993 11.736L922.819 12.6691L922.826 12.678L922.833 12.6867L923.993 11.736ZM914.073 1.844C920.128 1.844 924.938 3.90939 928.64 8.00581L930.866 5.99419C926.547 1.21594 920.903 -1.156 914.073 -1.156V1.844ZM928.65 8.01698C932.402 12.0847 934.333 17.4363 934.333 24.216H937.333C937.333 16.8303 935.211 10.7046 930.856 5.98302L928.65 8.01698ZM934.333 24.216C934.333 30.9952 932.402 36.3717 928.646 40.4843L930.86 42.5077C935.21 37.7456 937.333 31.6021 937.333 24.216H934.333ZM928.65 40.479C924.907 44.5378 920.051 46.588 913.945 46.588V49.588C920.81 49.588 926.492 47.2435 930.856 42.513L928.65 40.479ZM913.945 46.588C907.793 46.588 902.917 44.5356 899.176 40.479L896.97 42.513C901.336 47.2457 907.041 49.588 913.945 49.588V46.588ZM899.181 40.4849C895.471 36.4193 893.557 31.0453 893.557 24.216H890.557C890.557 31.6374 892.654 37.7834 896.965 42.5071L899.181 40.4849ZM893.557 24.216C893.557 17.6058 895.425 12.2798 899.073 8.11652L896.817 6.13948C892.614 10.9362 890.557 17.0022 890.557 24.216H893.557ZM899.073 8.11726C902.718 3.96267 907.659 1.844 914.073 1.844V-1.156C906.919 -1.156 901.108 1.24799 896.817 6.13874L899.073 8.11726ZM913.945 5.564C909.334 5.564 905.547 7.30854 902.73 10.7931L905.064 12.6789C907.282 9.93413 910.194 8.564 913.945 8.564V5.564ZM902.737 10.7853C899.941 14.1969 898.621 18.684 898.621 24.088H901.621C901.621 19.1667 902.818 15.4191 905.057 12.6867L902.737 10.7853ZM898.621 24.088C898.621 29.6056 899.913 34.1731 902.659 37.6291L905.007 35.7629C902.804 32.9896 901.621 29.1517 901.621 24.088H898.621ZM902.666 37.6389C905.492 41.1355 909.35 42.868 914.073 42.868V39.868C910.177 39.868 907.208 38.4858 905 35.7531L902.666 37.6389ZM914.073 42.868C918.648 42.868 922.395 41.1184 925.167 37.6291L922.819 35.7629C920.642 38.503 917.776 39.868 914.073 39.868V42.868ZM925.166 37.6311C927.95 34.1396 929.269 29.5977 929.269 24.152H926.269C926.269 29.117 925.071 32.9377 922.82 35.7609L925.166 37.6311ZM929.269 24.152C929.269 18.7088 927.951 14.1989 925.153 10.7853L922.833 12.6867C925.07 15.4171 926.269 19.1845 926.269 24.152H929.269ZM925.167 10.8029C922.389 7.30528 918.594 5.564 913.945 5.564V8.564C917.744 8.564 920.648 9.93738 922.819 12.6691L925.167 10.8029ZM975.818 1.432H977.318V-0.0680008H975.818V1.432ZM975.818 8.152V9.652H977.318V8.152H975.818ZM950.922 8.152V6.652H949.422V8.152H950.922ZM950.922 20.248H949.422V21.748H950.922V20.248ZM974.026 20.248H975.526V18.748H974.026V20.248ZM974.026 26.712V28.212H975.526V26.712H974.026ZM950.922 26.712V25.212H949.422V26.712H950.922ZM950.922 40.152H949.422V41.652H950.922V40.152ZM976.202 40.152H977.702V38.652H976.202V40.152ZM976.202 47V48.5H977.702V47H976.202ZM942.986 47H941.486V48.5H942.986V47ZM942.986 1.432V-0.0680008H941.486V1.432H942.986ZM974.318 1.432V8.152H977.318V1.432H974.318ZM975.818 6.652H950.922V9.652H975.818V6.652ZM949.422 8.152V20.248H952.422V8.152H949.422ZM950.922 21.748H974.026V18.748H950.922V21.748ZM972.526 20.248V26.712H975.526V20.248H972.526ZM974.026 25.212H950.922V28.212H974.026V25.212ZM949.422 26.712V40.152H952.422V26.712H949.422ZM950.922 41.652H976.202V38.652H950.922V41.652ZM974.702 40.152V47H977.702V40.152H974.702ZM976.202 45.5H942.986V48.5H976.202V45.5ZM944.486 47V1.432H941.486V47H944.486ZM942.986 2.932H975.818V-0.0680008H942.986V2.932ZM1021.51 1.432L1022.57 2.49452L1025.14 -0.0680008H1021.51V1.432ZM1003.27 19.608L1002.21 18.5455L1001.31 19.4402L1002.04 20.4747L1003.27 19.608ZM1022.66 47V48.5H1025.56L1023.88 46.1333L1022.66 47ZM1012.74 47L1011.5 47.8487L1011.95 48.5H1012.74V47ZM997.763 25.176L998.999 24.3273L997.978 22.8391L996.702 24.1153L997.763 25.176ZM991.235 31.704L990.174 30.6433L989.735 31.0827V31.704H991.235ZM991.235 47V48.5H992.735V47H991.235ZM983.299 47H981.799V48.5H983.299V47ZM983.299 1.432V-0.0680008H981.799V1.432H983.299ZM991.235 1.432H992.735V-0.0680008H991.235V1.432ZM991.235 22.104H989.735V25.7905L992.308 23.1513L991.235 22.104ZM1011.39 1.432V-0.0680008H1010.76L1010.32 0.384721L1011.39 1.432ZM1020.45 0.369477L1002.21 18.5455L1004.33 20.6705L1022.57 2.49452L1020.45 0.369477ZM1002.04 20.4747L1021.43 47.8667L1023.88 46.1333L1004.49 18.7413L1002.04 20.4747ZM1022.66 45.5H1012.74V48.5H1022.66V45.5ZM1013.98 46.1513L998.999 24.3273L996.526 26.0247L1011.5 47.8487L1013.98 46.1513ZM996.702 24.1153L990.174 30.6433L992.295 32.7647L998.823 26.2367L996.702 24.1153ZM989.735 31.704V47H992.735V31.704H989.735ZM991.235 45.5H983.299V48.5H991.235V45.5ZM984.799 47V1.432H981.799V47H984.799ZM983.299 2.932H991.235V-0.0680008H983.299V2.932ZM989.735 1.432V22.104H992.735V1.432H989.735ZM992.308 23.1513L1012.47 2.47928L1010.32 0.384721L990.161 21.0567L992.308 23.1513ZM1011.39 2.932H1021.51V-0.0680008H1011.39V2.932ZM1059.88 1.432H1061.38V-0.0680008H1059.88V1.432ZM1059.88 8.344V9.844H1061.38V8.344H1059.88ZM1045.35 8.344V6.844H1043.85V8.344H1045.35ZM1045.35 47V48.5H1046.85V47H1045.35ZM1037.35 47H1035.85V48.5H1037.35V47ZM1037.35 8.344H1038.85V6.844H1037.35V8.344ZM1022.82 8.344H1021.32V9.844H1022.82V8.344ZM1022.82 1.432V-0.0680008H1021.32V1.432H1022.82ZM1058.38 1.432V8.344H1061.38V1.432H1058.38ZM1059.88 6.844H1045.35V9.844H1059.88V6.844ZM1043.85 8.344V47H1046.85V8.344H1043.85ZM1045.35 45.5H1037.35V48.5H1045.35V45.5ZM1038.85 47V8.344H1035.85V47H1038.85ZM1037.35 6.844H1022.82V9.844H1037.35V6.844ZM1024.32 8.344V1.432H1021.32V8.344H1024.32ZM1022.82 2.932H1059.88V-0.0680008H1022.82V2.932ZM1095.51 43.352L1096.52 44.4643L1096.52 44.4635L1095.51 43.352ZM1065.18 47H1063.68V48.5H1065.18V47ZM1065.18 1.432V-0.0680008H1063.68V1.432H1065.18ZM1073.18 1.432H1074.68V-0.0680008H1073.18V1.432ZM1073.18 18.84H1071.68V20.34H1073.18V18.84ZM1095.58 22.488L1094.57 23.6003L1094.57 23.6003L1095.58 22.488ZM1089.5 27.416L1090.54 26.3391L1090.54 26.3391L1089.5 27.416ZM1073.18 25.368V23.868H1071.68V25.368H1073.18ZM1073.18 40.472H1071.68V41.972H1073.18V40.472ZM1104.98 1.432V-0.0680008H1103.48V1.432H1104.98ZM1112.98 1.432H1114.48V-0.0680008H1112.98V1.432ZM1112.98 47V48.5H1114.48V47H1112.98ZM1104.98 47H1103.48V48.5H1104.98V47ZM1098.11 32.856C1098.11 37.0591 1096.85 40.1132 1094.51 42.2405L1096.52 44.4635C1099.63 41.6415 1101.11 37.6982 1101.11 32.856H1098.11ZM1094.51 42.2397C1092.18 44.3433 1088.77 45.5 1084.06 45.5V48.5C1089.24 48.5 1093.47 47.2247 1096.52 44.4643L1094.51 42.2397ZM1084.06 45.5H1065.18V48.5H1084.06V45.5ZM1066.68 47V1.432H1063.68V47H1066.68ZM1065.18 2.932H1073.18V-0.0680008H1065.18V2.932ZM1071.68 1.432V18.84H1074.68V1.432H1071.68ZM1073.18 20.34H1084.06V17.34H1073.18V20.34ZM1084.06 20.34C1088.82 20.34 1092.25 21.4986 1094.57 23.6003L1096.58 21.3757C1093.53 18.6134 1089.28 17.34 1084.06 17.34V20.34ZM1094.57 23.6003C1096.87 25.6829 1098.11 28.6921 1098.11 32.856H1101.11C1101.11 28.0599 1099.66 24.1571 1096.58 21.3757L1094.57 23.6003ZM1093.11 33.048C1093.11 30.3476 1092.3 28.0468 1090.54 26.3391L1088.45 28.4928C1089.51 29.5159 1090.11 30.9697 1090.11 33.048H1093.11ZM1090.54 26.3391C1088.78 24.6316 1086.4 23.868 1083.61 23.868V26.868C1085.85 26.868 1087.4 27.4697 1088.45 28.4928L1090.54 26.3391ZM1083.61 23.868H1073.18V26.868H1083.61V23.868ZM1071.68 25.368V40.472H1074.68V25.368H1071.68ZM1073.18 41.972H1083.74V38.972H1073.18V41.972ZM1083.74 41.972C1086.57 41.972 1088.97 41.3055 1090.67 39.7073C1092.38 38.0935 1093.11 35.7771 1093.11 33.048H1090.11C1090.11 35.2683 1089.52 36.6638 1088.61 37.5247C1087.68 38.4012 1086.15 38.972 1083.74 38.972V41.972ZM1104.98 2.932H1112.98V-0.0680008H1104.98V2.932ZM1111.48 1.432V47H1114.48V1.432H1111.48ZM1112.98 45.5H1104.98V48.5H1112.98V45.5ZM1106.48 47V1.432H1103.48V47H1106.48ZM1117.69 55H1116.19V56.5H1117.69V55ZM1117.69 51.8V50.3H1116.19V51.8H1117.69ZM1149.69 51.8H1151.19V50.3H1149.69V51.8ZM1149.69 55V56.5H1151.19V55H1149.69ZM1119.19 55V51.8H1116.19V55H1119.19ZM1117.69 53.3H1149.69V50.3H1117.69V53.3ZM1148.19 51.8V55H1151.19V51.8H1148.19ZM1149.69 53.5H1117.69V56.5H1149.69V53.5ZM1244.66 1.432H1246.16V-0.0680008H1244.66V1.432ZM1244.66 47V48.5H1246.16V47H1244.66ZM1236.66 47H1235.16V48.5H1236.66V47ZM1236.66 8.344H1238.16V6.844H1236.66V8.344ZM1215.8 8.344V6.844H1214.3V8.344H1215.8ZM1215.8 47V48.5H1217.3V47H1215.8ZM1207.8 47H1206.3V48.5H1207.8V47ZM1207.8 1.432V-0.0680008H1206.3V1.432H1207.8ZM1243.16 1.432V47H1246.16V1.432H1243.16ZM1244.66 45.5H1236.66V48.5H1244.66V45.5ZM1238.16 47V8.344H1235.16V47H1238.16ZM1236.66 6.844H1215.8V9.844H1236.66V6.844ZM1214.3 8.344V47H1217.3V8.344H1214.3ZM1215.8 45.5H1207.8V48.5H1215.8V45.5ZM1209.3 47V1.432H1206.3V47H1209.3ZM1207.8 2.932H1244.66V-0.0680008H1207.8V2.932ZM1254.24 1.432V-0.0680008H1252.74V1.432H1254.24ZM1285.6 4.952L1284.64 6.10433L1284.65 6.11219L1284.66 6.11989L1285.6 4.952ZM1285.92 25.688L1286.95 26.7747L1286.96 26.7659L1285.92 25.688ZM1262.24 29.464V27.964H1260.74V29.464H1262.24ZM1262.24 47V48.5H1263.74V47H1262.24ZM1254.24 47H1252.74V48.5H1254.24V47ZM1262.24 8.088V6.588H1260.74V8.088H1262.24ZM1262.24 23H1260.74V24.5H1262.24V23ZM1254.24 2.932H1274.02V-0.0680008H1254.24V2.932ZM1274.02 2.932C1278.69 2.932 1282.17 4.04843 1284.64 6.10433L1286.56 3.79967C1283.4 1.16224 1279.15 -0.0680008 1274.02 -0.0680008V2.932ZM1284.66 6.11989C1287.08 8.06822 1288.39 11.0392 1288.39 15.32H1291.39C1291.39 10.3848 1289.84 6.44377 1286.54 3.78411L1284.66 6.11989ZM1288.39 15.32C1288.39 19.3457 1287.18 22.3839 1284.88 24.6101L1286.96 26.7659C1289.95 23.8721 1291.39 19.9983 1291.39 15.32H1288.39ZM1284.89 24.6014C1282.59 26.7911 1279.39 27.964 1275.1 27.964V30.964C1279.95 30.964 1283.96 29.6196 1286.95 26.7746L1284.89 24.6014ZM1275.1 27.964H1262.24V30.964H1275.1V27.964ZM1260.74 29.464V47H1263.74V29.464H1260.74ZM1262.24 45.5H1254.24V48.5H1262.24V45.5ZM1255.74 47V1.432H1252.74V47H1255.74ZM1260.74 8.088V23H1263.74V8.088H1260.74ZM1262.24 24.5H1273.38V21.5H1262.24V24.5ZM1273.38 24.5C1276.46 24.5 1279.05 23.842 1280.88 22.2651C1282.76 20.6511 1283.58 18.3031 1283.58 15.512H1280.58C1280.58 17.7129 1279.95 19.1089 1278.93 19.9909C1277.86 20.91 1276.1 21.5 1273.38 21.5V24.5ZM1283.58 15.512C1283.58 12.6991 1282.67 10.3556 1280.66 8.76647C1278.71 7.23076 1275.97 6.588 1272.67 6.588V9.588C1275.65 9.588 1277.61 10.1826 1278.8 11.1215C1279.92 12.0071 1280.58 13.3756 1280.58 15.512H1283.58ZM1272.67 6.588H1262.24V9.588H1272.67V6.588ZM1332.13 7L1331.02 8.00581L1331.02 8.01142L1331.03 8.01698L1332.13 7ZM1332.13 41.496L1333.23 42.513L1333.24 42.5077L1332.13 41.496ZM1300.45 41.496L1299.34 42.5072L1299.35 42.513L1300.45 41.496ZM1300.32 7.128L1299.19 6.13874L1299.19 6.13948L1300.32 7.128ZM1306.27 11.736L1307.43 12.6868L1307.44 12.6789L1306.27 11.736ZM1306.21 36.696L1305.03 37.6291L1305.04 37.6389L1306.21 36.696ZM1326.37 36.696L1325.2 35.7609L1325.19 35.7629L1326.37 36.696ZM1326.37 11.736L1325.19 12.6691L1325.2 12.678L1325.21 12.6867L1326.37 11.736ZM1316.45 1.844C1322.5 1.844 1327.31 3.90939 1331.02 8.00581L1333.24 5.99419C1328.92 1.21594 1323.28 -1.156 1316.45 -1.156V1.844ZM1331.03 8.01698C1334.78 12.0847 1336.71 17.4363 1336.71 24.216H1339.71C1339.71 16.8303 1337.59 10.7046 1333.23 5.98302L1331.03 8.01698ZM1336.71 24.216C1336.71 30.9952 1334.78 36.3717 1331.02 40.4843L1333.24 42.5077C1337.59 37.7456 1339.71 31.6021 1339.71 24.216H1336.71ZM1331.03 40.479C1327.28 44.5378 1322.43 46.588 1316.32 46.588V49.588C1323.18 49.588 1328.87 47.2435 1333.23 42.513L1331.03 40.479ZM1316.32 46.588C1310.17 46.588 1305.29 44.5356 1301.55 40.479L1299.35 42.513C1303.71 47.2457 1309.42 49.588 1316.32 49.588V46.588ZM1301.56 40.4849C1297.85 36.4193 1295.93 31.0453 1295.93 24.216H1292.93C1292.93 31.6374 1295.03 37.7834 1299.34 42.5071L1301.56 40.4849ZM1295.93 24.216C1295.93 17.6058 1297.8 12.2798 1301.45 8.11652L1299.19 6.13948C1294.99 10.9362 1292.93 17.0022 1292.93 24.216H1295.93ZM1301.45 8.11726C1305.09 3.96267 1310.03 1.844 1316.45 1.844V-1.156C1309.29 -1.156 1303.48 1.24799 1299.19 6.13874L1301.45 8.11726ZM1316.32 5.564C1311.71 5.564 1307.92 7.30854 1305.11 10.7931L1307.44 12.6789C1309.66 9.93413 1312.57 8.564 1316.32 8.564V5.564ZM1305.11 10.7853C1302.32 14.1969 1301 18.684 1301 24.088H1304C1304 19.1667 1305.19 15.4191 1307.43 12.6867L1305.11 10.7853ZM1301 24.088C1301 29.6056 1302.29 34.1731 1305.03 37.6291L1307.38 35.7629C1305.18 32.9896 1304 29.1517 1304 24.088H1301ZM1305.04 37.6389C1307.87 41.1355 1311.73 42.868 1316.45 42.868V39.868C1312.55 39.868 1309.58 38.4858 1307.37 35.7531L1305.04 37.6389ZM1316.45 42.868C1321.02 42.868 1324.77 41.1184 1327.54 37.6291L1325.19 35.7629C1323.02 38.503 1320.15 39.868 1316.45 39.868V42.868ZM1327.54 37.6311C1330.32 34.1396 1331.64 29.5977 1331.64 24.152H1328.64C1328.64 29.117 1327.45 32.9377 1325.2 35.7609L1327.54 37.6311ZM1331.64 24.152C1331.64 18.7088 1330.33 14.1989 1327.53 10.7853L1325.21 12.6867C1327.45 15.4171 1328.64 19.1845 1328.64 24.152H1331.64ZM1327.54 10.8029C1324.76 7.30528 1320.97 5.564 1316.32 5.564V8.564C1320.12 8.564 1323.02 9.93738 1325.19 12.6691L1327.54 10.8029ZM1378.19 1.432H1379.69V-0.0680008H1378.19V1.432ZM1378.19 8.152V9.652H1379.69V8.152H1378.19ZM1353.3 8.152V6.652H1351.8V8.152H1353.3ZM1353.3 20.248H1351.8V21.748H1353.3V20.248ZM1376.4 20.248H1377.9V18.748H1376.4V20.248ZM1376.4 26.712V28.212H1377.9V26.712H1376.4ZM1353.3 26.712V25.212H1351.8V26.712H1353.3ZM1353.3 40.152H1351.8V41.652H1353.3V40.152ZM1378.58 40.152H1380.08V38.652H1378.58V40.152ZM1378.58 47V48.5H1380.08V47H1378.58ZM1345.36 47H1343.86V48.5H1345.36V47ZM1345.36 1.432V-0.0680008H1343.86V1.432H1345.36ZM1376.69 1.432V8.152H1379.69V1.432H1376.69ZM1378.19 6.652H1353.3V9.652H1378.19V6.652ZM1351.8 8.152V20.248H1354.8V8.152H1351.8ZM1353.3 21.748H1376.4V18.748H1353.3V21.748ZM1374.9 20.248V26.712H1377.9V20.248H1374.9ZM1376.4 25.212H1353.3V28.212H1376.4V25.212ZM1351.8 26.712V40.152H1354.8V26.712H1351.8ZM1353.3 41.652H1378.58V38.652H1353.3V41.652ZM1377.08 40.152V47H1380.08V40.152H1377.08ZM1378.58 45.5H1345.36V48.5H1378.58V45.5ZM1346.86 47V1.432H1343.86V47H1346.86ZM1345.36 2.932H1378.19V-0.0680008H1345.36V2.932ZM1423.88 1.432L1424.94 2.49452L1427.51 -0.0680008H1423.88V1.432ZM1405.64 19.608L1404.58 18.5455L1403.68 19.4402L1404.42 20.4747L1405.64 19.608ZM1425.03 47V48.5H1427.93L1426.26 46.1333L1425.03 47ZM1415.11 47L1413.88 47.8487L1414.32 48.5H1415.11V47ZM1400.14 25.176L1401.37 24.3273L1400.35 22.8391L1399.08 24.1153L1400.14 25.176ZM1393.61 31.704L1392.55 30.6433L1392.11 31.0827V31.704H1393.61ZM1393.61 47V48.5H1395.11V47H1393.61ZM1385.67 47H1384.17V48.5H1385.67V47ZM1385.67 1.432V-0.0680008H1384.17V1.432H1385.67ZM1393.61 1.432H1395.11V-0.0680008H1393.61V1.432ZM1393.61 22.104H1392.11V25.7905L1394.68 23.1513L1393.61 22.104ZM1413.77 1.432V-0.0680008H1413.14L1412.7 0.384721L1413.77 1.432ZM1422.82 0.369477L1404.58 18.5455L1406.7 20.6705L1424.94 2.49452L1422.82 0.369477ZM1404.42 20.4747L1423.81 47.8667L1426.26 46.1333L1406.87 18.7413L1404.42 20.4747ZM1425.03 45.5H1415.11V48.5H1425.03V45.5ZM1416.35 46.1513L1401.37 24.3273L1398.9 26.0247L1413.88 47.8487L1416.35 46.1513ZM1399.08 24.1153L1392.55 30.6433L1394.67 32.7647L1401.2 26.2367L1399.08 24.1153ZM1392.11 31.704V47H1395.11V31.704H1392.11ZM1393.61 45.5H1385.67V48.5H1393.61V45.5ZM1387.17 47V1.432H1384.17V47H1387.17ZM1385.67 2.932H1393.61V-0.0680008H1385.67V2.932ZM1392.11 1.432V22.104H1395.11V1.432H1392.11ZM1394.68 23.1513L1414.84 2.47928L1412.7 0.384721L1392.54 21.0567L1394.68 23.1513ZM1413.77 2.932H1423.88V-0.0680008H1413.77V2.932ZM1462.25 1.432H1463.75V-0.0680008H1462.25V1.432ZM1462.25 8.344V9.844H1463.75V8.344H1462.25ZM1447.73 8.344V6.844H1446.23V8.344H1447.73ZM1447.73 47V48.5H1449.23V47H1447.73ZM1439.73 47H1438.23V48.5H1439.73V47ZM1439.73 8.344H1441.23V6.844H1439.73V8.344ZM1425.2 8.344H1423.7V9.844H1425.2V8.344ZM1425.2 1.432V-0.0680008H1423.7V1.432H1425.2ZM1460.75 1.432V8.344H1463.75V1.432H1460.75ZM1462.25 6.844H1447.73V9.844H1462.25V6.844ZM1446.23 8.344V47H1449.23V8.344H1446.23ZM1447.73 45.5H1439.73V48.5H1447.73V45.5ZM1441.23 47V8.344H1438.23V47H1441.23ZM1439.73 6.844H1425.2V9.844H1439.73V6.844ZM1426.7 8.344V1.432H1423.7V8.344H1426.7ZM1425.2 2.932H1462.25V-0.0680008H1425.2V2.932ZM1497.89 43.352L1498.89 44.4643L1498.89 44.4635L1497.89 43.352ZM1467.55 47H1466.05V48.5H1467.55V47ZM1467.55 1.432V-0.0680008H1466.05V1.432H1467.55ZM1475.55 1.432H1477.05V-0.0680008H1475.55V1.432ZM1475.55 18.84H1474.05V20.34H1475.55V18.84ZM1497.95 22.488L1496.95 23.6003L1496.95 23.6003L1497.95 22.488ZM1491.87 27.416L1492.92 26.3391L1492.92 26.3391L1491.87 27.416ZM1475.55 25.368V23.868H1474.05V25.368H1475.55ZM1475.55 40.472H1474.05V41.972H1475.55V40.472ZM1507.36 1.432V-0.0680008H1505.86V1.432H1507.36ZM1515.36 1.432H1516.86V-0.0680008H1515.36V1.432ZM1515.36 47V48.5H1516.86V47H1515.36ZM1507.36 47H1505.86V48.5H1507.36V47ZM1500.48 32.856C1500.48 37.0591 1499.23 40.1132 1496.88 42.2405L1498.89 44.4635C1502.01 41.6415 1503.48 37.6982 1503.48 32.856H1500.48ZM1496.88 42.2397C1494.56 44.3433 1491.15 45.5 1486.43 45.5V48.5C1491.62 48.5 1495.84 47.2247 1498.89 44.4643L1496.88 42.2397ZM1486.43 45.5H1467.55V48.5H1486.43V45.5ZM1469.05 47V1.432H1466.05V47H1469.05ZM1467.55 2.932H1475.55V-0.0680008H1467.55V2.932ZM1474.05 1.432V18.84H1477.05V1.432H1474.05ZM1475.55 20.34H1486.43V17.34H1475.55V20.34ZM1486.43 20.34C1491.19 20.34 1494.62 21.4986 1496.95 23.6003L1498.96 21.3757C1495.9 18.6134 1491.65 17.34 1486.43 17.34V20.34ZM1496.95 23.6003C1499.25 25.6829 1500.48 28.6921 1500.48 32.856H1503.48C1503.48 28.0599 1502.03 24.1571 1498.96 21.3757L1496.95 23.6003ZM1495.48 33.048C1495.48 30.3476 1494.68 28.0468 1492.92 26.3391L1490.83 28.4928C1491.88 29.5159 1492.48 30.9697 1492.48 33.048H1495.48ZM1492.92 26.3391C1491.15 24.6316 1488.78 23.868 1485.98 23.868V26.868C1488.23 26.868 1489.77 27.4697 1490.83 28.4928L1492.92 26.3391ZM1485.98 23.868H1475.55V26.868H1485.98V23.868ZM1474.05 25.368V40.472H1477.05V25.368H1474.05ZM1475.55 41.972H1486.11V38.972H1475.55V41.972ZM1486.11 41.972C1488.95 41.972 1491.35 41.3055 1493.04 39.7073C1494.76 38.0935 1495.48 35.7771 1495.48 33.048H1492.48C1492.48 35.2683 1491.9 36.6638 1490.99 37.5247C1490.06 38.4012 1488.53 38.972 1486.11 38.972V41.972ZM1507.36 2.932H1515.36V-0.0680008H1507.36V2.932ZM1513.86 1.432V47H1516.86V1.432H1513.86ZM1515.36 45.5H1507.36V48.5H1515.36V45.5ZM1508.86 47V1.432H1505.86V47H1508.86ZM1520.06 55H1518.56V56.5H1520.06V55ZM1520.06 51.8V50.3H1518.56V51.8H1520.06ZM1552.06 51.8H1553.56V50.3H1552.06V51.8ZM1552.06 55V56.5H1553.56V55H1552.06ZM1521.56 55V51.8H1518.56V55H1521.56ZM1520.06 53.3H1552.06V50.3H1520.06V53.3ZM1550.56 51.8V55H1553.56V51.8H1550.56ZM1552.06 53.5H1520.06V56.5H1552.06V53.5ZM1647.04 1.432H1648.54V-0.0680008H1647.04V1.432ZM1647.04 47V48.5H1648.54V47H1647.04ZM1639.04 47H1637.54V48.5H1639.04V47ZM1639.04 8.344H1640.54V6.844H1639.04V8.344ZM1618.17 8.344V6.844H1616.67V8.344H1618.17ZM1618.17 47V48.5H1619.67V47H1618.17ZM1610.17 47H1608.67V48.5H1610.17V47ZM1610.17 1.432V-0.0680008H1608.67V1.432H1610.17ZM1645.54 1.432V47H1648.54V1.432H1645.54ZM1647.04 45.5H1639.04V48.5H1647.04V45.5ZM1640.54 47V8.344H1637.54V47H1640.54ZM1639.04 6.844H1618.17V9.844H1639.04V6.844ZM1616.67 8.344V47H1619.67V8.344H1616.67ZM1618.17 45.5H1610.17V48.5H1618.17V45.5ZM1611.67 47V1.432H1608.67V47H1611.67ZM1610.17 2.932H1647.04V-0.0680008H1610.17V2.932ZM1656.62 1.432V-0.0680008H1655.12V1.432H1656.62ZM1687.98 4.952L1687.02 6.10433L1687.02 6.11219L1687.03 6.11989L1687.98 4.952ZM1688.3 25.688L1689.33 26.7747L1689.34 26.7659L1688.3 25.688ZM1664.62 29.464V27.964H1663.12V29.464H1664.62ZM1664.62 47V48.5H1666.12V47H1664.62ZM1656.62 47H1655.12V48.5H1656.62V47ZM1664.62 8.088V6.588H1663.12V8.088H1664.62ZM1664.62 23H1663.12V24.5H1664.62V23ZM1656.62 2.932H1676.39V-0.0680008H1656.62V2.932ZM1676.39 2.932C1681.07 2.932 1684.55 4.04843 1687.02 6.10433L1688.94 3.79967C1685.77 1.16224 1681.53 -0.0680008 1676.39 -0.0680008V2.932ZM1687.03 6.11989C1689.45 8.06822 1690.76 11.0392 1690.76 15.32H1693.76C1693.76 10.3848 1692.22 6.44377 1688.92 3.78411L1687.03 6.11989ZM1690.76 15.32C1690.76 19.3457 1689.55 22.3839 1687.25 24.6101L1689.34 26.7659C1692.33 23.8721 1693.76 19.9983 1693.76 15.32H1690.76ZM1687.26 24.6014C1684.96 26.7911 1681.76 27.964 1677.48 27.964V30.964C1682.33 30.964 1686.34 29.6196 1689.33 26.7746L1687.26 24.6014ZM1677.48 27.964H1664.62V30.964H1677.48V27.964ZM1663.12 29.464V47H1666.12V29.464H1663.12ZM1664.62 45.5H1656.62V48.5H1664.62V45.5ZM1658.12 47V1.432H1655.12V47H1658.12ZM1663.12 8.088V23H1666.12V8.088H1663.12ZM1664.62 24.5H1675.75V21.5H1664.62V24.5ZM1675.75 24.5C1678.83 24.5 1681.42 23.842 1683.26 22.2651C1685.13 20.6511 1685.96 18.3031 1685.96 15.512H1682.96C1682.96 17.7129 1682.33 19.1089 1681.3 19.9909C1680.23 20.91 1678.47 21.5 1675.75 21.5V24.5ZM1685.96 15.512C1685.96 12.6991 1685.05 10.3556 1683.03 8.76647C1681.09 7.23076 1678.34 6.588 1675.05 6.588V9.588C1678.03 9.588 1679.98 10.1826 1681.17 11.1215C1682.3 12.0071 1682.96 13.3756 1682.96 15.512H1685.96ZM1675.05 6.588H1664.62V9.588H1675.05V6.588ZM1734.5 7L1733.39 8.00581L1733.4 8.01142L1733.4 8.01698L1734.5 7ZM1734.5 41.496L1735.61 42.513L1735.61 42.5077L1734.5 41.496ZM1702.82 41.496L1701.72 42.5072L1701.72 42.513L1702.82 41.496ZM1702.7 7.128L1701.57 6.13874L1701.57 6.13948L1702.7 7.128ZM1708.65 11.736L1709.81 12.6868L1709.81 12.6789L1708.65 11.736ZM1708.58 36.696L1707.41 37.6291L1707.42 37.6389L1708.58 36.696ZM1728.74 36.696L1727.57 35.7609L1727.57 35.7629L1728.74 36.696ZM1728.74 11.736L1727.57 12.6691L1727.58 12.678L1727.58 12.6867L1728.74 11.736ZM1718.82 1.844C1724.88 1.844 1729.69 3.90939 1733.39 8.00581L1735.62 5.99419C1731.3 1.21594 1725.65 -1.156 1718.82 -1.156V1.844ZM1733.4 8.01698C1737.15 12.0847 1739.08 17.4363 1739.08 24.216H1742.08C1742.08 16.8303 1739.96 10.7046 1735.61 5.98302L1733.4 8.01698ZM1739.08 24.216C1739.08 30.9952 1737.15 36.3717 1733.4 40.4843L1735.61 42.5077C1739.96 37.7456 1742.08 31.6021 1742.08 24.216H1739.08ZM1733.4 40.479C1729.66 44.5378 1724.8 46.588 1718.7 46.588V49.588C1725.56 49.588 1731.24 47.2435 1735.61 42.513L1733.4 40.479ZM1718.7 46.588C1712.54 46.588 1707.67 44.5356 1703.93 40.479L1701.72 42.513C1706.09 47.2457 1711.79 49.588 1718.7 49.588V46.588ZM1703.93 40.4849C1700.22 36.4193 1698.31 31.0453 1698.31 24.216H1695.31C1695.31 31.6374 1697.4 37.7834 1701.72 42.5071L1703.93 40.4849ZM1698.31 24.216C1698.31 17.6058 1700.18 12.2798 1703.82 8.11652L1701.57 6.13948C1697.36 10.9362 1695.31 17.0022 1695.31 24.216H1698.31ZM1703.82 8.11726C1707.47 3.96267 1712.41 1.844 1718.82 1.844V-1.156C1711.67 -1.156 1705.86 1.24799 1701.57 6.13874L1703.82 8.11726ZM1718.7 5.564C1714.08 5.564 1710.3 7.30854 1707.48 10.7931L1709.81 12.6789C1712.03 9.93413 1714.94 8.564 1718.7 8.564V5.564ZM1707.49 10.7853C1704.69 14.1969 1703.37 18.684 1703.37 24.088H1706.37C1706.37 19.1667 1707.57 15.4191 1709.81 12.6867L1707.49 10.7853ZM1703.37 24.088C1703.37 29.6056 1704.66 34.1731 1707.41 37.6291L1709.76 35.7629C1707.55 32.9896 1706.37 29.1517 1706.37 24.088H1703.37ZM1707.42 37.6389C1710.24 41.1355 1714.1 42.868 1718.82 42.868V39.868C1714.93 39.868 1711.96 38.4858 1709.75 35.7531L1707.42 37.6389ZM1718.82 42.868C1723.4 42.868 1727.15 41.1184 1729.92 37.6291L1727.57 35.7629C1725.39 38.503 1722.53 39.868 1718.82 39.868V42.868ZM1729.92 37.6311C1732.7 34.1396 1734.02 29.5977 1734.02 24.152H1731.02C1731.02 29.117 1729.82 32.9377 1727.57 35.7609L1729.92 37.6311ZM1734.02 24.152C1734.02 18.7088 1732.7 14.1989 1729.9 10.7853L1727.58 12.6867C1729.82 15.4171 1731.02 19.1845 1731.02 24.152H1734.02ZM1729.92 10.8029C1727.14 7.30528 1723.34 5.564 1718.7 5.564V8.564C1722.49 8.564 1725.4 9.93738 1727.57 12.6691L1729.92 10.8029ZM1780.57 1.432H1782.07V-0.0680008H1780.57V1.432ZM1780.57 8.152V9.652H1782.07V8.152H1780.57ZM1755.67 8.152V6.652H1754.17V8.152H1755.67ZM1755.67 20.248H1754.17V21.748H1755.67V20.248ZM1778.78 20.248H1780.28V18.748H1778.78V20.248ZM1778.78 26.712V28.212H1780.28V26.712H1778.78ZM1755.67 26.712V25.212H1754.17V26.712H1755.67ZM1755.67 40.152H1754.17V41.652H1755.67V40.152ZM1780.95 40.152H1782.45V38.652H1780.95V40.152ZM1780.95 47V48.5H1782.45V47H1780.95ZM1747.74 47H1746.24V48.5H1747.74V47ZM1747.74 1.432V-0.0680008H1746.24V1.432H1747.74ZM1779.07 1.432V8.152H1782.07V1.432H1779.07ZM1780.57 6.652H1755.67V9.652H1780.57V6.652ZM1754.17 8.152V20.248H1757.17V8.152H1754.17ZM1755.67 21.748H1778.78V18.748H1755.67V21.748ZM1777.28 20.248V26.712H1780.28V20.248H1777.28ZM1778.78 25.212H1755.67V28.212H1778.78V25.212ZM1754.17 26.712V40.152H1757.17V26.712H1754.17ZM1755.67 41.652H1780.95V38.652H1755.67V41.652ZM1779.45 40.152V47H1782.45V40.152H1779.45ZM1780.95 45.5H1747.74V48.5H1780.95V45.5ZM1749.24 47V1.432H1746.24V47H1749.24ZM1747.74 2.932H1780.57V-0.0680008H1747.74V2.932ZM1826.26 1.432L1827.32 2.49452L1829.89 -0.0680008H1826.26V1.432ZM1808.02 19.608L1806.96 18.5455L1806.06 19.4402L1806.79 20.4747L1808.02 19.608ZM1827.41 47V48.5H1830.31L1828.63 46.1333L1827.41 47ZM1817.49 47L1816.25 47.8487L1816.7 48.5H1817.49V47ZM1802.51 25.176L1803.75 24.3273L1802.73 22.8391L1801.45 24.1153L1802.51 25.176ZM1795.98 31.704L1794.92 30.6433L1794.48 31.0827V31.704H1795.98ZM1795.98 47V48.5H1797.48V47H1795.98ZM1788.05 47H1786.55V48.5H1788.05V47ZM1788.05 1.432V-0.0680008H1786.55V1.432H1788.05ZM1795.98 1.432H1797.48V-0.0680008H1795.98V1.432ZM1795.98 22.104H1794.48V25.7905L1797.06 23.1513L1795.98 22.104ZM1816.14 1.432V-0.0680008H1815.51L1815.07 0.384721L1816.14 1.432ZM1825.2 0.369477L1806.96 18.5455L1809.08 20.6705L1827.32 2.49452L1825.2 0.369477ZM1806.79 20.4747L1826.18 47.8667L1828.63 46.1333L1809.24 18.7413L1806.79 20.4747ZM1827.41 45.5H1817.49V48.5H1827.41V45.5ZM1818.73 46.1513L1803.75 24.3273L1801.28 26.0247L1816.25 47.8487L1818.73 46.1513ZM1801.45 24.1153L1794.92 30.6433L1797.05 32.7647L1803.57 26.2367L1801.45 24.1153ZM1794.48 31.704V47H1797.48V31.704H1794.48ZM1795.98 45.5H1788.05V48.5H1795.98V45.5ZM1789.55 47V1.432H1786.55V47H1789.55ZM1788.05 2.932H1795.98V-0.0680008H1788.05V2.932ZM1794.48 1.432V22.104H1797.48V1.432H1794.48ZM1797.06 23.1513L1817.22 2.47928L1815.07 0.384721L1794.91 21.0567L1797.06 23.1513ZM1816.14 2.932H1826.26V-0.0680008H1816.14V2.932ZM1864.63 1.432H1866.13V-0.0680008H1864.63V1.432ZM1864.63 8.344V9.844H1866.13V8.344H1864.63ZM1850.1 8.344V6.844H1848.6V8.344H1850.1ZM1850.1 47V48.5H1851.6V47H1850.1ZM1842.1 47H1840.6V48.5H1842.1V47ZM1842.1 8.344H1843.6V6.844H1842.1V8.344ZM1827.57 8.344H1826.07V9.844H1827.57V8.344ZM1827.57 1.432V-0.0680008H1826.07V1.432H1827.57ZM1863.13 1.432V8.344H1866.13V1.432H1863.13ZM1864.63 6.844H1850.1V9.844H1864.63V6.844ZM1848.6 8.344V47H1851.6V8.344H1848.6ZM1850.1 45.5H1842.1V48.5H1850.1V45.5ZM1843.6 47V8.344H1840.6V47H1843.6ZM1842.1 6.844H1827.57V9.844H1842.1V6.844ZM1829.07 8.344V1.432H1826.07V8.344H1829.07ZM1827.57 2.932H1864.63V-0.0680008H1827.57V2.932ZM1900.26 43.352L1901.27 44.4643L1901.27 44.4635L1900.26 43.352ZM1869.93 47H1868.43V48.5H1869.93V47ZM1869.93 1.432V-0.0680008H1868.43V1.432H1869.93ZM1877.93 1.432H1879.43V-0.0680008H1877.93V1.432ZM1877.93 18.84H1876.43V20.34H1877.93V18.84ZM1900.33 22.488L1899.32 23.6003L1899.32 23.6003L1900.33 22.488ZM1894.25 27.416L1895.29 26.3391L1895.29 26.3391L1894.25 27.416ZM1877.93 25.368V23.868H1876.43V25.368H1877.93ZM1877.93 40.472H1876.43V41.972H1877.93V40.472ZM1909.73 1.432V-0.0680008H1908.23V1.432H1909.73ZM1917.73 1.432H1919.23V-0.0680008H1917.73V1.432ZM1917.73 47V48.5H1919.23V47H1917.73ZM1909.73 47H1908.23V48.5H1909.73V47ZM1902.86 32.856C1902.86 37.0591 1901.6 40.1132 1899.26 42.2405L1901.27 44.4635C1904.38 41.6415 1905.86 37.6982 1905.86 32.856H1902.86ZM1899.26 42.2397C1896.93 44.3433 1893.52 45.5 1888.81 45.5V48.5C1893.99 48.5 1898.22 47.2247 1901.27 44.4643L1899.26 42.2397ZM1888.81 45.5H1869.93V48.5H1888.81V45.5ZM1871.43 47V1.432H1868.43V47H1871.43ZM1869.93 2.932H1877.93V-0.0680008H1869.93V2.932ZM1876.43 1.432V18.84H1879.43V1.432H1876.43ZM1877.93 20.34H1888.81V17.34H1877.93V20.34ZM1888.81 20.34C1893.57 20.34 1897 21.4986 1899.32 23.6003L1901.33 21.3757C1898.28 18.6134 1894.03 17.34 1888.81 17.34V20.34ZM1899.32 23.6003C1901.62 25.6829 1902.86 28.6921 1902.86 32.856H1905.86C1905.86 28.0599 1904.41 24.1571 1901.33 21.3757L1899.32 23.6003ZM1897.86 33.048C1897.86 30.3476 1897.05 28.0468 1895.29 26.3391L1893.2 28.4928C1894.26 29.5159 1894.86 30.9697 1894.86 33.048H1897.86ZM1895.29 26.3391C1893.53 24.6316 1891.15 23.868 1888.36 23.868V26.868C1890.6 26.868 1892.15 27.4697 1893.2 28.4928L1895.29 26.3391ZM1888.36 23.868H1877.93V26.868H1888.36V23.868ZM1876.43 25.368V40.472H1879.43V25.368H1876.43ZM1877.93 41.972H1888.49V38.972H1877.93V41.972ZM1888.49 41.972C1891.32 41.972 1893.72 41.3055 1895.42 39.7073C1897.13 38.0935 1897.86 35.7771 1897.86 33.048H1894.86C1894.86 35.2683 1894.27 36.6638 1893.36 37.5247C1892.43 38.4012 1890.9 38.972 1888.49 38.972V41.972ZM1909.73 2.932H1917.73V-0.0680008H1909.73V2.932ZM1916.23 1.432V47H1919.23V1.432H1916.23ZM1917.73 45.5H1909.73V48.5H1917.73V45.5ZM1911.23 47V1.432H1908.23V47H1911.23ZM1922.44 55H1920.94V56.5H1922.44V55ZM1922.44 51.8V50.3H1920.94V51.8H1922.44ZM1954.44 51.8H1955.94V50.3H1954.44V51.8ZM1954.44 55V56.5H1955.94V55H1954.44ZM1923.94 55V51.8H1920.94V55H1923.94ZM1922.44 53.3H1954.44V50.3H1922.44V53.3ZM1952.94 51.8V55H1955.94V51.8H1952.94ZM1954.44 53.5H1922.44V56.5H1954.44V53.5ZM2049.41 1.432H2050.91V-0.0680008H2049.41V1.432ZM2049.41 47V48.5H2050.91V47H2049.41ZM2041.41 47H2039.91V48.5H2041.41V47ZM2041.41 8.344H2042.91V6.844H2041.41V8.344ZM2020.55 8.344V6.844H2019.05V8.344H2020.55ZM2020.55 47V48.5H2022.05V47H2020.55ZM2012.55 47H2011.05V48.5H2012.55V47ZM2012.55 1.432V-0.0680008H2011.05V1.432H2012.55ZM2047.91 1.432V47H2050.91V1.432H2047.91ZM2049.41 45.5H2041.41V48.5H2049.41V45.5ZM2042.91 47V8.344H2039.91V47H2042.91ZM2041.41 6.844H2020.55V9.844H2041.41V6.844ZM2019.05 8.344V47H2022.05V8.344H2019.05ZM2020.55 45.5H2012.55V48.5H2020.55V45.5ZM2014.05 47V1.432H2011.05V47H2014.05ZM2012.55 2.932H2049.41V-0.0680008H2012.55V2.932ZM2058.99 1.432V-0.0680008H2057.49V1.432H2058.99ZM2090.35 4.952L2089.39 6.10433L2089.4 6.11219L2089.41 6.11989L2090.35 4.952ZM2090.67 25.688L2091.7 26.7747L2091.71 26.7659L2090.67 25.688ZM2066.99 29.464V27.964H2065.49V29.464H2066.99ZM2066.99 47V48.5H2068.49V47H2066.99ZM2058.99 47H2057.49V48.5H2058.99V47ZM2066.99 8.088V6.588H2065.49V8.088H2066.99ZM2066.99 23H2065.49V24.5H2066.99V23ZM2058.99 2.932H2078.77V-0.0680008H2058.99V2.932ZM2078.77 2.932C2083.44 2.932 2086.92 4.04843 2089.39 6.10433L2091.31 3.79967C2088.15 1.16224 2083.9 -0.0680008 2078.77 -0.0680008V2.932ZM2089.41 6.11989C2091.83 8.06822 2093.14 11.0392 2093.14 15.32H2096.14C2096.14 10.3848 2094.59 6.44377 2091.29 3.78411L2089.41 6.11989ZM2093.14 15.32C2093.14 19.3457 2091.93 22.3839 2089.63 24.6101L2091.71 26.7659C2094.7 23.8721 2096.14 19.9983 2096.14 15.32H2093.14ZM2089.64 24.6014C2087.34 26.7911 2084.14 27.964 2079.85 27.964V30.964C2084.7 30.964 2088.71 29.6196 2091.7 26.7746L2089.64 24.6014ZM2079.85 27.964H2066.99V30.964H2079.85V27.964ZM2065.49 29.464V47H2068.49V29.464H2065.49ZM2066.99 45.5H2058.99V48.5H2066.99V45.5ZM2060.49 47V1.432H2057.49V47H2060.49ZM2065.49 8.088V23H2068.49V8.088H2065.49ZM2066.99 24.5H2078.13V21.5H2066.99V24.5ZM2078.13 24.5C2081.21 24.5 2083.8 23.842 2085.63 22.2651C2087.51 20.6511 2088.33 18.3031 2088.33 15.512H2085.33C2085.33 17.7129 2084.7 19.1089 2083.68 19.9909C2082.61 20.91 2080.85 21.5 2078.13 21.5V24.5ZM2088.33 15.512C2088.33 12.6991 2087.42 10.3556 2085.41 8.76647C2083.46 7.23076 2080.72 6.588 2077.42 6.588V9.588C2080.4 9.588 2082.36 10.1826 2083.55 11.1215C2084.67 12.0071 2085.33 13.3756 2085.33 15.512H2088.33ZM2077.42 6.588H2066.99V9.588H2077.42V6.588ZM2136.88 7L2135.77 8.00581L2135.77 8.01142L2135.78 8.01698L2136.88 7ZM2136.88 41.496L2137.98 42.513L2137.99 42.5077L2136.88 41.496ZM2105.2 41.496L2104.09 42.5072L2104.1 42.513L2105.2 41.496ZM2105.07 7.128L2103.94 6.13874L2103.94 6.13948L2105.07 7.128ZM2111.02 11.736L2112.18 12.6868L2112.19 12.6789L2111.02 11.736ZM2110.96 36.696L2109.78 37.6291L2109.79 37.6389L2110.96 36.696ZM2131.12 36.696L2129.95 35.7609L2129.94 35.7629L2131.12 36.696ZM2131.12 11.736L2129.94 12.6691L2129.95 12.678L2129.96 12.6867L2131.12 11.736ZM2121.2 1.844C2127.25 1.844 2132.06 3.90939 2135.77 8.00581L2137.99 5.99419C2133.67 1.21594 2128.03 -1.156 2121.2 -1.156V1.844ZM2135.78 8.01698C2139.53 12.0847 2141.46 17.4363 2141.46 24.216H2144.46C2144.46 16.8303 2142.34 10.7046 2137.98 5.98302L2135.78 8.01698ZM2141.46 24.216C2141.46 30.9952 2139.53 36.3717 2135.77 40.4843L2137.99 42.5077C2142.34 37.7456 2144.46 31.6021 2144.46 24.216H2141.46ZM2135.78 40.479C2132.03 44.5378 2127.18 46.588 2121.07 46.588V49.588C2127.93 49.588 2133.62 47.2435 2137.98 42.513L2135.78 40.479ZM2121.07 46.588C2114.92 46.588 2110.04 44.5356 2106.3 40.479L2104.1 42.513C2108.46 47.2457 2114.17 49.588 2121.07 49.588V46.588ZM2106.31 40.4849C2102.6 36.4193 2100.68 31.0453 2100.68 24.216H2097.68C2097.68 31.6374 2099.78 37.7834 2104.09 42.5071L2106.31 40.4849ZM2100.68 24.216C2100.68 17.6058 2102.55 12.2798 2106.2 8.11652L2103.94 6.13948C2099.74 10.9362 2097.68 17.0022 2097.68 24.216H2100.68ZM2106.2 8.11726C2109.84 3.96267 2114.78 1.844 2121.2 1.844V-1.156C2114.04 -1.156 2108.23 1.24799 2103.94 6.13874L2106.2 8.11726ZM2121.07 5.564C2116.46 5.564 2112.67 7.30854 2109.86 10.7931L2112.19 12.6789C2114.41 9.93413 2117.32 8.564 2121.07 8.564V5.564ZM2109.86 10.7853C2107.07 14.1969 2105.75 18.684 2105.75 24.088H2108.75C2108.75 19.1667 2109.94 15.4191 2112.18 12.6867L2109.86 10.7853ZM2105.75 24.088C2105.75 29.6056 2107.04 34.1731 2109.78 37.6291L2112.13 35.7629C2109.93 32.9896 2108.75 29.1517 2108.75 24.088H2105.75ZM2109.79 37.6389C2112.62 41.1355 2116.48 42.868 2121.2 42.868V39.868C2117.3 39.868 2114.33 38.4858 2112.12 35.7531L2109.79 37.6389ZM2121.2 42.868C2125.77 42.868 2129.52 41.1184 2132.29 37.6291L2129.94 35.7629C2127.77 38.503 2124.9 39.868 2121.2 39.868V42.868ZM2132.29 37.6311C2135.07 34.1396 2136.39 29.5977 2136.39 24.152H2133.39C2133.39 29.117 2132.2 32.9377 2129.95 35.7609L2132.29 37.6311ZM2136.39 24.152C2136.39 18.7088 2135.08 14.1989 2132.28 10.7853L2129.96 12.6867C2132.2 15.4171 2133.39 19.1845 2133.39 24.152H2136.39ZM2132.29 10.8029C2129.51 7.30528 2125.72 5.564 2121.07 5.564V8.564C2124.87 8.564 2127.77 9.93738 2129.94 12.6691L2132.29 10.8029ZM2182.94 1.432H2184.44V-0.0680008H2182.94V1.432ZM2182.94 8.152V9.652H2184.44V8.152H2182.94ZM2158.05 8.152V6.652H2156.55V8.152H2158.05ZM2158.05 20.248H2156.55V21.748H2158.05V20.248ZM2181.15 20.248H2182.65V18.748H2181.15V20.248ZM2181.15 26.712V28.212H2182.65V26.712H2181.15ZM2158.05 26.712V25.212H2156.55V26.712H2158.05ZM2158.05 40.152H2156.55V41.652H2158.05V40.152ZM2183.33 40.152H2184.83V38.652H2183.33V40.152ZM2183.33 47V48.5H2184.83V47H2183.33ZM2150.11 47H2148.61V48.5H2150.11V47ZM2150.11 1.432V-0.0680008H2148.61V1.432H2150.11ZM2181.44 1.432V8.152H2184.44V1.432H2181.44ZM2182.94 6.652H2158.05V9.652H2182.94V6.652ZM2156.55 8.152V20.248H2159.55V8.152H2156.55ZM2158.05 21.748H2181.15V18.748H2158.05V21.748ZM2179.65 20.248V26.712H2182.65V20.248H2179.65ZM2181.15 25.212H2158.05V28.212H2181.15V25.212ZM2156.55 26.712V40.152H2159.55V26.712H2156.55ZM2158.05 41.652H2183.33V38.652H2158.05V41.652ZM2181.83 40.152V47H2184.83V40.152H2181.83ZM2183.33 45.5H2150.11V48.5H2183.33V45.5ZM2151.61 47V1.432H2148.61V47H2151.61ZM2150.11 2.932H2182.94V-0.0680008H2150.11V2.932ZM2228.63 1.432L2229.69 2.49452L2232.26 -0.0680008H2228.63V1.432ZM2210.39 19.608L2209.33 18.5455L2208.43 19.4402L2209.17 20.4747L2210.39 19.608ZM2229.78 47V48.5H2232.68L2231.01 46.1333L2229.78 47ZM2219.86 47L2218.63 47.8487L2219.07 48.5H2219.86V47ZM2204.89 25.176L2206.12 24.3273L2205.1 22.8391L2203.83 24.1153L2204.89 25.176ZM2198.36 31.704L2197.3 30.6433L2196.86 31.0827V31.704H2198.36ZM2198.36 47V48.5H2199.86V47H2198.36ZM2190.42 47H2188.92V48.5H2190.42V47ZM2190.42 1.432V-0.0680008H2188.92V1.432H2190.42ZM2198.36 1.432H2199.86V-0.0680008H2198.36V1.432ZM2198.36 22.104H2196.86V25.7905L2199.43 23.1513L2198.36 22.104ZM2218.52 1.432V-0.0680008H2217.89L2217.45 0.384721L2218.52 1.432ZM2227.57 0.369477L2209.33 18.5455L2211.45 20.6705L2229.69 2.49452L2227.57 0.369477ZM2209.17 20.4747L2228.56 47.8667L2231.01 46.1333L2211.62 18.7413L2209.17 20.4747ZM2229.78 45.5H2219.86V48.5H2229.78V45.5ZM2221.1 46.1513L2206.12 24.3273L2203.65 26.0247L2218.63 47.8487L2221.1 46.1513ZM2203.83 24.1153L2197.3 30.6433L2199.42 32.7647L2205.95 26.2367L2203.83 24.1153ZM2196.86 31.704V47H2199.86V31.704H2196.86ZM2198.36 45.5H2190.42V48.5H2198.36V45.5ZM2191.92 47V1.432H2188.92V47H2191.92ZM2190.42 2.932H2198.36V-0.0680008H2190.42V2.932ZM2196.86 1.432V22.104H2199.86V1.432H2196.86ZM2199.43 23.1513L2219.59 2.47928L2217.45 0.384721L2197.29 21.0567L2199.43 23.1513ZM2218.52 2.932H2228.63V-0.0680008H2218.52V2.932ZM2267 1.432H2268.5V-0.0680008H2267V1.432ZM2267 8.344V9.844H2268.5V8.344H2267ZM2252.48 8.344V6.844H2250.98V8.344H2252.48ZM2252.48 47V48.5H2253.98V47H2252.48ZM2244.48 47H2242.98V48.5H2244.48V47ZM2244.48 8.344H2245.98V6.844H2244.48V8.344ZM2229.95 8.344H2228.45V9.844H2229.95V8.344ZM2229.95 1.432V-0.0680008H2228.45V1.432H2229.95ZM2265.5 1.432V8.344H2268.5V1.432H2265.5ZM2267 6.844H2252.48V9.844H2267V6.844ZM2250.98 8.344V47H2253.98V8.344H2250.98ZM2252.48 45.5H2244.48V48.5H2252.48V45.5ZM2245.98 47V8.344H2242.98V47H2245.98ZM2244.48 6.844H2229.95V9.844H2244.48V6.844ZM2231.45 8.344V1.432H2228.45V8.344H2231.45ZM2229.95 2.932H2267V-0.0680008H2229.95V2.932ZM2302.64 43.352L2303.64 44.4643L2303.64 44.4635L2302.64 43.352ZM2272.3 47H2270.8V48.5H2272.3V47ZM2272.3 1.432V-0.0680008H2270.8V1.432H2272.3ZM2280.3 1.432H2281.8V-0.0680008H2280.3V1.432ZM2280.3 18.84H2278.8V20.34H2280.3V18.84ZM2302.7 22.488L2301.7 23.6003L2301.7 23.6003L2302.7 22.488ZM2296.62 27.416L2297.67 26.3391L2297.67 26.3391L2296.62 27.416ZM2280.3 25.368V23.868H2278.8V25.368H2280.3ZM2280.3 40.472H2278.8V41.972H2280.3V40.472ZM2312.11 1.432V-0.0680008H2310.61V1.432H2312.11ZM2320.11 1.432H2321.61V-0.0680008H2320.11V1.432ZM2320.11 47V48.5H2321.61V47H2320.11ZM2312.11 47H2310.61V48.5H2312.11V47ZM2305.23 32.856C2305.23 37.0591 2303.98 40.1132 2301.63 42.2405L2303.64 44.4635C2306.76 41.6415 2308.23 37.6982 2308.23 32.856H2305.23ZM2301.63 42.2397C2299.31 44.3433 2295.9 45.5 2291.18 45.5V48.5C2296.37 48.5 2300.59 47.2247 2303.64 44.4643L2301.63 42.2397ZM2291.18 45.5H2272.3V48.5H2291.18V45.5ZM2273.8 47V1.432H2270.8V47H2273.8ZM2272.3 2.932H2280.3V-0.0680008H2272.3V2.932ZM2278.8 1.432V18.84H2281.8V1.432H2278.8ZM2280.3 20.34H2291.18V17.34H2280.3V20.34ZM2291.18 20.34C2295.94 20.34 2299.37 21.4986 2301.7 23.6003L2303.71 21.3757C2300.65 18.6134 2296.4 17.34 2291.18 17.34V20.34ZM2301.7 23.6003C2304 25.6829 2305.23 28.6921 2305.23 32.856H2308.23C2308.23 28.0599 2306.78 24.1571 2303.71 21.3757L2301.7 23.6003ZM2300.23 33.048C2300.23 30.3476 2299.43 28.0468 2297.67 26.3391L2295.58 28.4928C2296.63 29.5159 2297.23 30.9697 2297.23 33.048H2300.23ZM2297.67 26.3391C2295.9 24.6316 2293.53 23.868 2290.73 23.868V26.868C2292.98 26.868 2294.52 27.4697 2295.58 28.4928L2297.67 26.3391ZM2290.73 23.868H2280.3V26.868H2290.73V23.868ZM2278.8 25.368V40.472H2281.8V25.368H2278.8ZM2280.3 41.972H2290.86V38.972H2280.3V41.972ZM2290.86 41.972C2293.7 41.972 2296.1 41.3055 2297.79 39.7073C2299.51 38.0935 2300.23 35.7771 2300.23 33.048H2297.23C2297.23 35.2683 2296.65 36.6638 2295.74 37.5247C2294.81 38.4012 2293.28 38.972 2290.86 38.972V41.972ZM2312.11 2.932H2320.11V-0.0680008H2312.11V2.932ZM2318.61 1.432V47H2321.61V1.432H2318.61ZM2320.11 45.5H2312.11V48.5H2320.11V45.5ZM2313.61 47V1.432H2310.61V47H2313.61ZM2324.81 55H2323.31V56.5H2324.81V55ZM2324.81 51.8V50.3H2323.31V51.8H2324.81ZM2356.81 51.8H2358.31V50.3H2356.81V51.8ZM2356.81 55V56.5H2358.31V55H2356.81ZM2326.31 55V51.8H2323.31V55H2326.31ZM2324.81 53.3H2356.81V50.3H2324.81V53.3ZM2355.31 51.8V55H2358.31V51.8H2355.31ZM2356.81 53.5H2324.81V56.5H2356.81V53.5ZM2451.79 1.432H2453.29V-0.0680008H2451.79V1.432ZM2451.79 47V48.5H2453.29V47H2451.79ZM2443.79 47H2442.29V48.5H2443.79V47ZM2443.79 8.344H2445.29V6.844H2443.79V8.344ZM2422.92 8.344V6.844H2421.42V8.344H2422.92ZM2422.92 47V48.5H2424.42V47H2422.92ZM2414.92 47H2413.42V48.5H2414.92V47ZM2414.92 1.432V-0.0680008H2413.42V1.432H2414.92ZM2450.29 1.432V47H2453.29V1.432H2450.29ZM2451.79 45.5H2443.79V48.5H2451.79V45.5ZM2445.29 47V8.344H2442.29V47H2445.29ZM2443.79 6.844H2422.92V9.844H2443.79V6.844ZM2421.42 8.344V47H2424.42V8.344H2421.42ZM2422.92 45.5H2414.92V48.5H2422.92V45.5ZM2416.42 47V1.432H2413.42V47H2416.42ZM2414.92 2.932H2451.79V-0.0680008H2414.92V2.932ZM2461.37 1.432V-0.0680008H2459.87V1.432H2461.37ZM2492.73 4.952L2491.77 6.10433L2491.77 6.11219L2491.78 6.11989L2492.73 4.952ZM2493.05 25.688L2494.08 26.7747L2494.09 26.7659L2493.05 25.688ZM2469.37 29.464V27.964H2467.87V29.464H2469.37ZM2469.37 47V48.5H2470.87V47H2469.37ZM2461.37 47H2459.87V48.5H2461.37V47ZM2469.37 8.088V6.588H2467.87V8.088H2469.37ZM2469.37 23H2467.87V24.5H2469.37V23ZM2461.37 2.932H2481.14V-0.0680008H2461.37V2.932ZM2481.14 2.932C2485.82 2.932 2489.3 4.04843 2491.77 6.10433L2493.69 3.79967C2490.52 1.16224 2486.28 -0.0680008 2481.14 -0.0680008V2.932ZM2491.78 6.11989C2494.2 8.06822 2495.51 11.0392 2495.51 15.32H2498.51C2498.51 10.3848 2496.97 6.44377 2493.67 3.78411L2491.78 6.11989ZM2495.51 15.32C2495.51 19.3457 2494.3 22.3839 2492 24.6101L2494.09 26.7659C2497.08 23.8721 2498.51 19.9983 2498.51 15.32H2495.51ZM2492.01 24.6014C2489.71 26.7911 2486.51 27.964 2482.23 27.964V30.964C2487.08 30.964 2491.09 29.6196 2494.08 26.7746L2492.01 24.6014ZM2482.23 27.964H2469.37V30.964H2482.23V27.964ZM2467.87 29.464V47H2470.87V29.464H2467.87ZM2469.37 45.5H2461.37V48.5H2469.37V45.5ZM2462.87 47V1.432H2459.87V47H2462.87ZM2467.87 8.088V23H2470.87V8.088H2467.87ZM2469.37 24.5H2480.5V21.5H2469.37V24.5ZM2480.5 24.5C2483.58 24.5 2486.17 23.842 2488.01 22.2651C2489.88 20.6511 2490.71 18.3031 2490.71 15.512H2487.71C2487.71 17.7129 2487.08 19.1089 2486.05 19.9909C2484.98 20.91 2483.22 21.5 2480.5 21.5V24.5ZM2490.71 15.512C2490.71 12.6991 2489.8 10.3556 2487.78 8.76647C2485.84 7.23076 2483.09 6.588 2479.8 6.588V9.588C2482.78 9.588 2484.73 10.1826 2485.92 11.1215C2487.05 12.0071 2487.71 13.3756 2487.71 15.512H2490.71ZM2479.8 6.588H2469.37V9.588H2479.8V6.588ZM2539.25 7L2538.14 8.00581L2538.15 8.01142L2538.15 8.01698L2539.25 7ZM2539.25 41.496L2540.36 42.513L2540.36 42.5077L2539.25 41.496ZM2507.57 41.496L2506.47 42.5072L2506.47 42.513L2507.57 41.496ZM2507.45 7.128L2506.32 6.13874L2506.32 6.13948L2507.45 7.128ZM2513.4 11.736L2514.56 12.6868L2514.56 12.6789L2513.4 11.736ZM2513.33 36.696L2512.16 37.6291L2512.17 37.6389L2513.33 36.696ZM2533.49 36.696L2532.32 35.7609L2532.32 35.7629L2533.49 36.696ZM2533.49 11.736L2532.32 12.6691L2532.33 12.678L2532.33 12.6867L2533.49 11.736ZM2523.57 1.844C2529.63 1.844 2534.44 3.90939 2538.14 8.00581L2540.37 5.99419C2536.05 1.21594 2530.4 -1.156 2523.57 -1.156V1.844ZM2538.15 8.01698C2541.9 12.0847 2543.83 17.4363 2543.83 24.216H2546.83C2546.83 16.8303 2544.71 10.7046 2540.36 5.98302L2538.15 8.01698ZM2543.83 24.216C2543.83 30.9952 2541.9 36.3717 2538.15 40.4843L2540.36 42.5077C2544.71 37.7456 2546.83 31.6021 2546.83 24.216H2543.83ZM2538.15 40.479C2534.41 44.5378 2529.55 46.588 2523.45 46.588V49.588C2530.31 49.588 2535.99 47.2435 2540.36 42.513L2538.15 40.479ZM2523.45 46.588C2517.29 46.588 2512.42 44.5356 2508.68 40.479L2506.47 42.513C2510.84 47.2457 2516.54 49.588 2523.45 49.588V46.588ZM2508.68 40.4849C2504.97 36.4193 2503.06 31.0453 2503.06 24.216H2500.06C2500.06 31.6374 2502.15 37.7834 2506.47 42.5071L2508.68 40.4849ZM2503.06 24.216C2503.06 17.6058 2504.93 12.2798 2508.57 8.11652L2506.32 6.13948C2502.11 10.9362 2500.06 17.0022 2500.06 24.216H2503.06ZM2508.57 8.11726C2512.22 3.96267 2517.16 1.844 2523.57 1.844V-1.156C2516.42 -1.156 2510.61 1.24799 2506.32 6.13874L2508.57 8.11726ZM2523.45 5.564C2518.83 5.564 2515.05 7.30854 2512.23 10.7931L2514.56 12.6789C2516.78 9.93413 2519.69 8.564 2523.45 8.564V5.564ZM2512.24 10.7853C2509.44 14.1969 2508.12 18.684 2508.12 24.088H2511.12C2511.12 19.1667 2512.32 15.4191 2514.56 12.6867L2512.24 10.7853ZM2508.12 24.088C2508.12 29.6056 2509.41 34.1731 2512.16 37.6291L2514.51 35.7629C2512.3 32.9896 2511.12 29.1517 2511.12 24.088H2508.12ZM2512.17 37.6389C2514.99 41.1355 2518.85 42.868 2523.57 42.868V39.868C2519.68 39.868 2516.71 38.4858 2514.5 35.7531L2512.17 37.6389ZM2523.57 42.868C2528.15 42.868 2531.9 41.1184 2534.67 37.6291L2532.32 35.7629C2530.14 38.503 2527.28 39.868 2523.57 39.868V42.868ZM2534.67 37.6311C2537.45 34.1396 2538.77 29.5977 2538.77 24.152H2535.77C2535.77 29.117 2534.57 32.9377 2532.32 35.7609L2534.67 37.6311ZM2538.77 24.152C2538.77 18.7088 2537.45 14.1989 2534.65 10.7853L2532.33 12.6867C2534.57 15.4171 2535.77 19.1845 2535.77 24.152H2538.77ZM2534.67 10.8029C2531.89 7.30528 2528.09 5.564 2523.45 5.564V8.564C2527.24 8.564 2530.15 9.93738 2532.32 12.6691L2534.67 10.8029ZM2585.32 1.432H2586.82V-0.0680008H2585.32V1.432ZM2585.32 8.152V9.652H2586.82V8.152H2585.32ZM2560.42 8.152V6.652H2558.92V8.152H2560.42ZM2560.42 20.248H2558.92V21.748H2560.42V20.248ZM2583.53 20.248H2585.03V18.748H2583.53V20.248ZM2583.53 26.712V28.212H2585.03V26.712H2583.53ZM2560.42 26.712V25.212H2558.92V26.712H2560.42ZM2560.42 40.152H2558.92V41.652H2560.42V40.152ZM2585.7 40.152H2587.2V38.652H2585.7V40.152ZM2585.7 47V48.5H2587.2V47H2585.7ZM2552.49 47H2550.99V48.5H2552.49V47ZM2552.49 1.432V-0.0680008H2550.99V1.432H2552.49ZM2583.82 1.432V8.152H2586.82V1.432H2583.82ZM2585.32 6.652H2560.42V9.652H2585.32V6.652ZM2558.92 8.152V20.248H2561.92V8.152H2558.92ZM2560.42 21.748H2583.53V18.748H2560.42V21.748ZM2582.03 20.248V26.712H2585.03V20.248H2582.03ZM2583.53 25.212H2560.42V28.212H2583.53V25.212ZM2558.92 26.712V40.152H2561.92V26.712H2558.92ZM2560.42 41.652H2585.7V38.652H2560.42V41.652ZM2584.2 40.152V47H2587.2V40.152H2584.2ZM2585.7 45.5H2552.49V48.5H2585.7V45.5ZM2553.99 47V1.432H2550.99V47H2553.99ZM2552.49 2.932H2585.32V-0.0680008H2552.49V2.932ZM2631.01 1.432L2632.07 2.49452L2634.64 -0.0680008H2631.01V1.432ZM2612.77 19.608L2611.71 18.5455L2610.81 19.4402L2611.54 20.4747L2612.77 19.608ZM2632.16 47V48.5H2635.06L2633.38 46.1333L2632.16 47ZM2622.24 47L2621 47.8487L2621.45 48.5H2622.24V47ZM2607.26 25.176L2608.5 24.3273L2607.48 22.8391L2606.2 24.1153L2607.26 25.176ZM2600.73 31.704L2599.67 30.6433L2599.23 31.0827V31.704H2600.73ZM2600.73 47V48.5H2602.23V47H2600.73ZM2592.8 47H2591.3V48.5H2592.8V47ZM2592.8 1.432V-0.0680008H2591.3V1.432H2592.8ZM2600.73 1.432H2602.23V-0.0680008H2600.73V1.432ZM2600.73 22.104H2599.23V25.7905L2601.81 23.1513L2600.73 22.104ZM2620.89 1.432V-0.0680008H2620.26L2619.82 0.384721L2620.89 1.432ZM2629.95 0.369477L2611.71 18.5455L2613.83 20.6705L2632.07 2.49452L2629.95 0.369477ZM2611.54 20.4747L2630.93 47.8667L2633.38 46.1333L2613.99 18.7413L2611.54 20.4747ZM2632.16 45.5H2622.24V48.5H2632.16V45.5ZM2623.48 46.1513L2608.5 24.3273L2606.03 26.0247L2621 47.8487L2623.48 46.1513ZM2606.2 24.1153L2599.67 30.6433L2601.8 32.7647L2608.32 26.2367L2606.2 24.1153ZM2599.23 31.704V47H2602.23V31.704H2599.23ZM2600.73 45.5H2592.8V48.5H2600.73V45.5ZM2594.3 47V1.432H2591.3V47H2594.3ZM2592.8 2.932H2600.73V-0.0680008H2592.8V2.932ZM2599.23 1.432V22.104H2602.23V1.432H2599.23ZM2601.81 23.1513L2621.97 2.47928L2619.82 0.384721L2599.66 21.0567L2601.81 23.1513ZM2620.89 2.932H2631.01V-0.0680008H2620.89V2.932ZM2669.38 1.432H2670.88V-0.0680008H2669.38V1.432ZM2669.38 8.344V9.844H2670.88V8.344H2669.38ZM2654.85 8.344V6.844H2653.35V8.344H2654.85ZM2654.85 47V48.5H2656.35V47H2654.85ZM2646.85 47H2645.35V48.5H2646.85V47ZM2646.85 8.344H2648.35V6.844H2646.85V8.344ZM2632.32 8.344H2630.82V9.844H2632.32V8.344ZM2632.32 1.432V-0.0680008H2630.82V1.432H2632.32ZM2667.88 1.432V8.344H2670.88V1.432H2667.88ZM2669.38 6.844H2654.85V9.844H2669.38V6.844ZM2653.35 8.344V47H2656.35V8.344H2653.35ZM2654.85 45.5H2646.85V48.5H2654.85V45.5ZM2648.35 47V8.344H2645.35V47H2648.35ZM2646.85 6.844H2632.32V9.844H2646.85V6.844ZM2633.82 8.344V1.432H2630.82V8.344H2633.82ZM2632.32 2.932H2669.38V-0.0680008H2632.32V2.932ZM2705.01 43.352L2706.02 44.4643L2706.02 44.4635L2705.01 43.352ZM2674.68 47H2673.18V48.5H2674.68V47ZM2674.68 1.432V-0.0680008H2673.18V1.432H2674.68ZM2682.68 1.432H2684.18V-0.0680008H2682.68V1.432ZM2682.68 18.84H2681.18V20.34H2682.68V18.84ZM2705.08 22.488L2704.07 23.6003L2704.07 23.6003L2705.08 22.488ZM2699 27.416L2700.04 26.3391L2700.04 26.3391L2699 27.416ZM2682.68 25.368V23.868H2681.18V25.368H2682.68ZM2682.68 40.472H2681.18V41.972H2682.68V40.472ZM2714.48 1.432V-0.0680008H2712.98V1.432H2714.48ZM2722.48 1.432H2723.98V-0.0680008H2722.48V1.432ZM2722.48 47V48.5H2723.98V47H2722.48ZM2714.48 47H2712.98V48.5H2714.48V47ZM2707.61 32.856C2707.61 37.0591 2706.35 40.1132 2704.01 42.2405L2706.02 44.4635C2709.13 41.6415 2710.61 37.6982 2710.61 32.856H2707.61ZM2704.01 42.2397C2701.68 44.3433 2698.27 45.5 2693.56 45.5V48.5C2698.74 48.5 2702.97 47.2247 2706.02 44.4643L2704.01 42.2397ZM2693.56 45.5H2674.68V48.5H2693.56V45.5ZM2676.18 47V1.432H2673.18V47H2676.18ZM2674.68 2.932H2682.68V-0.0680008H2674.68V2.932ZM2681.18 1.432V18.84H2684.18V1.432H2681.18ZM2682.68 20.34H2693.56V17.34H2682.68V20.34ZM2693.56 20.34C2698.32 20.34 2701.75 21.4986 2704.07 23.6003L2706.08 21.3757C2703.03 18.6134 2698.78 17.34 2693.56 17.34V20.34ZM2704.07 23.6003C2706.37 25.6829 2707.61 28.6921 2707.61 32.856H2710.61C2710.61 28.0599 2709.16 24.1571 2706.08 21.3757L2704.07 23.6003ZM2702.61 33.048C2702.61 30.3476 2701.8 28.0468 2700.04 26.3391L2697.95 28.4928C2699.01 29.5159 2699.61 30.9697 2699.61 33.048H2702.61ZM2700.04 26.3391C2698.28 24.6316 2695.9 23.868 2693.11 23.868V26.868C2695.35 26.868 2696.9 27.4697 2697.95 28.4928L2700.04 26.3391ZM2693.11 23.868H2682.68V26.868H2693.11V23.868ZM2681.18 25.368V40.472H2684.18V25.368H2681.18ZM2682.68 41.972H2693.24V38.972H2682.68V41.972ZM2693.24 41.972C2696.07 41.972 2698.47 41.3055 2700.17 39.7073C2701.88 38.0935 2702.61 35.7771 2702.61 33.048H2699.61C2699.61 35.2683 2699.02 36.6638 2698.11 37.5247C2697.18 38.4012 2695.65 38.972 2693.24 38.972V41.972ZM2714.48 2.932H2722.48V-0.0680008H2714.48V2.932ZM2720.98 1.432V47H2723.98V1.432H2720.98ZM2722.48 45.5H2714.48V48.5H2722.48V45.5ZM2715.98 47V1.432H2712.98V47H2715.98ZM2727.19 55H2725.69V56.5H2727.19V55ZM2727.19 51.8V50.3H2725.69V51.8H2727.19ZM2759.19 51.8H2760.69V50.3H2759.19V51.8ZM2759.19 55V56.5H2760.69V55H2759.19ZM2728.69 55V51.8H2725.69V55H2728.69ZM2727.19 53.3H2759.19V50.3H2727.19V53.3ZM2757.69 51.8V55H2760.69V51.8H2757.69ZM2759.19 53.5H2727.19V56.5H2759.19V53.5ZM2854.16 1.432H2855.66V-0.0680008H2854.16V1.432ZM2854.16 47V48.5H2855.66V47H2854.16ZM2846.16 47H2844.66V48.5H2846.16V47ZM2846.16 8.344H2847.66V6.844H2846.16V8.344ZM2825.3 8.344V6.844H2823.8V8.344H2825.3ZM2825.3 47V48.5H2826.8V47H2825.3ZM2817.3 47H2815.8V48.5H2817.3V47ZM2817.3 1.432V-0.0680008H2815.8V1.432H2817.3ZM2852.66 1.432V47H2855.66V1.432H2852.66ZM2854.16 45.5H2846.16V48.5H2854.16V45.5ZM2847.66 47V8.344H2844.66V47H2847.66ZM2846.16 6.844H2825.3V9.844H2846.16V6.844ZM2823.8 8.344V47H2826.8V8.344H2823.8ZM2825.3 45.5H2817.3V48.5H2825.3V45.5ZM2818.8 47V1.432H2815.8V47H2818.8ZM2817.3 2.932H2854.16V-0.0680008H2817.3V2.932ZM2863.74 1.432V-0.0680008H2862.24V1.432H2863.74ZM2895.1 4.952L2894.14 6.10433L2894.15 6.11219L2894.16 6.11989L2895.1 4.952ZM2895.42 25.688L2896.45 26.7747L2896.46 26.7659L2895.42 25.688ZM2871.74 29.464V27.964H2870.24V29.464H2871.74ZM2871.74 47V48.5H2873.24V47H2871.74ZM2863.74 47H2862.24V48.5H2863.74V47ZM2871.74 8.088V6.588H2870.24V8.088H2871.74ZM2871.74 23H2870.24V24.5H2871.74V23ZM2863.74 2.932H2883.52V-0.0680008H2863.74V2.932ZM2883.52 2.932C2888.19 2.932 2891.67 4.04843 2894.14 6.10433L2896.06 3.79967C2892.9 1.16224 2888.65 -0.0680008 2883.52 -0.0680008V2.932ZM2894.16 6.11989C2896.58 8.06822 2897.89 11.0392 2897.89 15.32H2900.89C2900.89 10.3848 2899.34 6.44377 2896.04 3.78411L2894.16 6.11989ZM2897.89 15.32C2897.89 19.3457 2896.68 22.3839 2894.38 24.6101L2896.46 26.7659C2899.45 23.8721 2900.89 19.9983 2900.89 15.32H2897.89ZM2894.39 24.6014C2892.09 26.7911 2888.89 27.964 2884.6 27.964V30.964C2889.45 30.964 2893.46 29.6196 2896.45 26.7746L2894.39 24.6014ZM2884.6 27.964H2871.74V30.964H2884.6V27.964ZM2870.24 29.464V47H2873.24V29.464H2870.24ZM2871.74 45.5H2863.74V48.5H2871.74V45.5ZM2865.24 47V1.432H2862.24V47H2865.24ZM2870.24 8.088V23H2873.24V8.088H2870.24ZM2871.74 24.5H2882.88V21.5H2871.74V24.5ZM2882.88 24.5C2885.96 24.5 2888.55 23.842 2890.38 22.2651C2892.26 20.6511 2893.08 18.3031 2893.08 15.512H2890.08C2890.08 17.7129 2889.45 19.1089 2888.43 19.9909C2887.36 20.91 2885.6 21.5 2882.88 21.5V24.5ZM2893.08 15.512C2893.08 12.6991 2892.17 10.3556 2890.16 8.76647C2888.21 7.23076 2885.47 6.588 2882.17 6.588V9.588C2885.15 9.588 2887.11 10.1826 2888.3 11.1215C2889.42 12.0071 2890.08 13.3756 2890.08 15.512H2893.08ZM2882.17 6.588H2871.74V9.588H2882.17V6.588ZM2941.63 7L2940.52 8.00581L2940.52 8.01142L2940.53 8.01698L2941.63 7ZM2941.63 41.496L2942.73 42.513L2942.74 42.5077L2941.63 41.496ZM2909.95 41.496L2908.84 42.5072L2908.85 42.513L2909.95 41.496ZM2909.82 7.128L2908.69 6.13874L2908.69 6.13948L2909.82 7.128ZM2915.77 11.736L2916.93 12.6868L2916.94 12.6789L2915.77 11.736ZM2915.71 36.696L2914.53 37.6291L2914.54 37.6389L2915.71 36.696ZM2935.87 36.696L2934.7 35.7609L2934.69 35.7629L2935.87 36.696ZM2935.87 11.736L2934.69 12.6691L2934.7 12.678L2934.71 12.6867L2935.87 11.736ZM2925.95 1.844C2932 1.844 2936.81 3.90939 2940.52 8.00581L2942.74 5.99419C2938.42 1.21594 2932.78 -1.156 2925.95 -1.156V1.844ZM2940.53 8.01698C2944.28 12.0847 2946.21 17.4363 2946.21 24.216H2949.21C2949.21 16.8303 2947.09 10.7046 2942.73 5.98302L2940.53 8.01698ZM2946.21 24.216C2946.21 30.9952 2944.28 36.3717 2940.52 40.4843L2942.74 42.5077C2947.09 37.7456 2949.21 31.6021 2949.21 24.216H2946.21ZM2940.53 40.479C2936.78 44.5378 2931.93 46.588 2925.82 46.588V49.588C2932.68 49.588 2938.37 47.2435 2942.73 42.513L2940.53 40.479ZM2925.82 46.588C2919.67 46.588 2914.79 44.5356 2911.05 40.479L2908.85 42.513C2913.21 47.2457 2918.92 49.588 2925.82 49.588V46.588ZM2911.06 40.4849C2907.35 36.4193 2905.43 31.0453 2905.43 24.216H2902.43C2902.43 31.6374 2904.53 37.7834 2908.84 42.5071L2911.06 40.4849ZM2905.43 24.216C2905.43 17.6058 2907.3 12.2798 2910.95 8.11652L2908.69 6.13948C2904.49 10.9362 2902.43 17.0022 2902.43 24.216H2905.43ZM2910.95 8.11726C2914.59 3.96267 2919.53 1.844 2925.95 1.844V-1.156C2918.79 -1.156 2912.98 1.24799 2908.69 6.13874L2910.95 8.11726ZM2925.82 5.564C2921.21 5.564 2917.42 7.30854 2914.61 10.7931L2916.94 12.6789C2919.16 9.93413 2922.07 8.564 2925.82 8.564V5.564ZM2914.61 10.7853C2911.82 14.1969 2910.5 18.684 2910.5 24.088H2913.5C2913.5 19.1667 2914.69 15.4191 2916.93 12.6867L2914.61 10.7853ZM2910.5 24.088C2910.5 29.6056 2911.79 34.1731 2914.53 37.6291L2916.88 35.7629C2914.68 32.9896 2913.5 29.1517 2913.5 24.088H2910.5ZM2914.54 37.6389C2917.37 41.1355 2921.23 42.868 2925.95 42.868V39.868C2922.05 39.868 2919.08 38.4858 2916.87 35.7531L2914.54 37.6389ZM2925.95 42.868C2930.52 42.868 2934.27 41.1184 2937.04 37.6291L2934.69 35.7629C2932.52 38.503 2929.65 39.868 2925.95 39.868V42.868ZM2937.04 37.6311C2939.82 34.1396 2941.14 29.5977 2941.14 24.152H2938.14C2938.14 29.117 2936.95 32.9377 2934.7 35.7609L2937.04 37.6311ZM2941.14 24.152C2941.14 18.7088 2939.83 14.1989 2937.03 10.7853L2934.71 12.6867C2936.95 15.4171 2938.14 19.1845 2938.14 24.152H2941.14ZM2937.04 10.8029C2934.26 7.30528 2930.47 5.564 2925.82 5.564V8.564C2929.62 8.564 2932.52 9.93738 2934.69 12.6691L2937.04 10.8029ZM2987.69 1.432H2989.19V-0.0680008H2987.69V1.432ZM2987.69 8.152V9.652H2989.19V8.152H2987.69ZM2962.8 8.152V6.652H2961.3V8.152H2962.8ZM2962.8 20.248H2961.3V21.748H2962.8V20.248ZM2985.9 20.248H2987.4V18.748H2985.9V20.248ZM2985.9 26.712V28.212H2987.4V26.712H2985.9ZM2962.8 26.712V25.212H2961.3V26.712H2962.8ZM2962.8 40.152H2961.3V41.652H2962.8V40.152ZM2988.08 40.152H2989.58V38.652H2988.08V40.152ZM2988.08 47V48.5H2989.58V47H2988.08ZM2954.86 47H2953.36V48.5H2954.86V47ZM2954.86 1.432V-0.0680008H2953.36V1.432H2954.86ZM2986.19 1.432V8.152H2989.19V1.432H2986.19ZM2987.69 6.652H2962.8V9.652H2987.69V6.652ZM2961.3 8.152V20.248H2964.3V8.152H2961.3ZM2962.8 21.748H2985.9V18.748H2962.8V21.748ZM2984.4 20.248V26.712H2987.4V20.248H2984.4ZM2985.9 25.212H2962.8V28.212H2985.9V25.212ZM2961.3 26.712V40.152H2964.3V26.712H2961.3ZM2962.8 41.652H2988.08V38.652H2962.8V41.652ZM2986.58 40.152V47H2989.58V40.152H2986.58ZM2988.08 45.5H2954.86V48.5H2988.08V45.5ZM2956.36 47V1.432H2953.36V47H2956.36ZM2954.86 2.932H2987.69V-0.0680008H2954.86V2.932ZM3033.38 1.432L3034.44 2.49452L3037.01 -0.0680008H3033.38V1.432ZM3015.14 19.608L3014.08 18.5455L3013.18 19.4402L3013.92 20.4747L3015.14 19.608ZM3034.53 47V48.5H3037.43L3035.76 46.1333L3034.53 47ZM3024.61 47L3023.38 47.8487L3023.82 48.5H3024.61V47ZM3009.64 25.176L3010.87 24.3273L3009.85 22.8391L3008.58 24.1153L3009.64 25.176ZM3003.11 31.704L3002.05 30.6433L3001.61 31.0827V31.704H3003.11ZM3003.11 47V48.5H3004.61V47H3003.11ZM2995.17 47H2993.67V48.5H2995.17V47ZM2995.17 1.432V-0.0680008H2993.67V1.432H2995.17ZM3003.11 1.432H3004.61V-0.0680008H3003.11V1.432ZM3003.11 22.104H3001.61V25.7905L3004.18 23.1513L3003.11 22.104ZM3023.27 1.432V-0.0680008H3022.64L3022.2 0.384721L3023.27 1.432ZM3032.32 0.369477L3014.08 18.5455L3016.2 20.6705L3034.44 2.49452L3032.32 0.369477ZM3013.92 20.4747L3033.31 47.8667L3035.76 46.1333L3016.37 18.7413L3013.92 20.4747ZM3034.53 45.5H3024.61V48.5H3034.53V45.5ZM3025.85 46.1513L3010.87 24.3273L3008.4 26.0247L3023.38 47.8487L3025.85 46.1513ZM3008.58 24.1153L3002.05 30.6433L3004.17 32.7647L3010.7 26.2367L3008.58 24.1153ZM3001.61 31.704V47H3004.61V31.704H3001.61ZM3003.11 45.5H2995.17V48.5H3003.11V45.5ZM2996.67 47V1.432H2993.67V47H2996.67ZM2995.17 2.932H3003.11V-0.0680008H2995.17V2.932ZM3001.61 1.432V22.104H3004.61V1.432H3001.61ZM3004.18 23.1513L3024.34 2.47928L3022.2 0.384721L3002.04 21.0567L3004.18 23.1513ZM3023.27 2.932H3033.38V-0.0680008H3023.27V2.932ZM3071.75 1.432H3073.25V-0.0680008H3071.75V1.432ZM3071.75 8.344V9.844H3073.25V8.344H3071.75ZM3057.23 8.344V6.844H3055.73V8.344H3057.23ZM3057.23 47V48.5H3058.73V47H3057.23ZM3049.23 47H3047.73V48.5H3049.23V47ZM3049.23 8.344H3050.73V6.844H3049.23V8.344ZM3034.7 8.344H3033.2V9.844H3034.7V8.344ZM3034.7 1.432V-0.0680008H3033.2V1.432H3034.7ZM3070.25 1.432V8.344H3073.25V1.432H3070.25ZM3071.75 6.844H3057.23V9.844H3071.75V6.844ZM3055.73 8.344V47H3058.73V8.344H3055.73ZM3057.23 45.5H3049.23V48.5H3057.23V45.5ZM3050.73 47V8.344H3047.73V47H3050.73ZM3049.23 6.844H3034.7V9.844H3049.23V6.844ZM3036.2 8.344V1.432H3033.2V8.344H3036.2ZM3034.7 2.932H3071.75V-0.0680008H3034.7V2.932ZM3107.39 43.352L3108.39 44.4643L3108.39 44.4635L3107.39 43.352ZM3077.05 47H3075.55V48.5H3077.05V47ZM3077.05 1.432V-0.0680008H3075.55V1.432H3077.05ZM3085.05 1.432H3086.55V-0.0680008H3085.05V1.432ZM3085.05 18.84H3083.55V20.34H3085.05V18.84ZM3107.45 22.488L3106.45 23.6003L3106.45 23.6003L3107.45 22.488ZM3101.37 27.416L3102.42 26.3391L3102.42 26.3391L3101.37 27.416ZM3085.05 25.368V23.868H3083.55V25.368H3085.05ZM3085.05 40.472H3083.55V41.972H3085.05V40.472ZM3116.86 1.432V-0.0680008H3115.36V1.432H3116.86ZM3124.86 1.432H3126.36V-0.0680008H3124.86V1.432ZM3124.86 47V48.5H3126.36V47H3124.86ZM3116.86 47H3115.36V48.5H3116.86V47ZM3109.98 32.856C3109.98 37.0591 3108.73 40.1132 3106.38 42.2405L3108.39 44.4635C3111.51 41.6415 3112.98 37.6982 3112.98 32.856H3109.98ZM3106.38 42.2397C3104.06 44.3433 3100.65 45.5 3095.93 45.5V48.5C3101.12 48.5 3105.34 47.2247 3108.39 44.4643L3106.38 42.2397ZM3095.93 45.5H3077.05V48.5H3095.93V45.5ZM3078.55 47V1.432H3075.55V47H3078.55ZM3077.05 2.932H3085.05V-0.0680008H3077.05V2.932ZM3083.55 1.432V18.84H3086.55V1.432H3083.55ZM3085.05 20.34H3095.93V17.34H3085.05V20.34ZM3095.93 20.34C3100.69 20.34 3104.12 21.4986 3106.45 23.6003L3108.46 21.3757C3105.4 18.6134 3101.15 17.34 3095.93 17.34V20.34ZM3106.45 23.6003C3108.75 25.6829 3109.98 28.6921 3109.98 32.856H3112.98C3112.98 28.0599 3111.53 24.1571 3108.46 21.3757L3106.45 23.6003ZM3104.98 33.048C3104.98 30.3476 3104.18 28.0468 3102.42 26.3391L3100.33 28.4928C3101.38 29.5159 3101.98 30.9697 3101.98 33.048H3104.98ZM3102.42 26.3391C3100.65 24.6316 3098.28 23.868 3095.48 23.868V26.868C3097.73 26.868 3099.27 27.4697 3100.33 28.4928L3102.42 26.3391ZM3095.48 23.868H3085.05V26.868H3095.48V23.868ZM3083.55 25.368V40.472H3086.55V25.368H3083.55ZM3085.05 41.972H3095.61V38.972H3085.05V41.972ZM3095.61 41.972C3098.45 41.972 3100.85 41.3055 3102.54 39.7073C3104.26 38.0935 3104.98 35.7771 3104.98 33.048H3101.98C3101.98 35.2683 3101.4 36.6638 3100.49 37.5247C3099.56 38.4012 3098.03 38.972 3095.61 38.972V41.972ZM3116.86 2.932H3124.86V-0.0680008H3116.86V2.932ZM3123.36 1.432V47H3126.36V1.432H3123.36ZM3124.86 45.5H3116.86V48.5H3124.86V45.5ZM3118.36 47V1.432H3115.36V47H3118.36ZM3129.56 55H3128.06V56.5H3129.56V55ZM3129.56 51.8V50.3H3128.06V51.8H3129.56ZM3161.56 51.8H3163.06V50.3H3161.56V51.8ZM3161.56 55V56.5H3163.06V55H3161.56ZM3131.06 55V51.8H3128.06V55H3131.06ZM3129.56 53.3H3161.56V50.3H3129.56V53.3ZM3160.06 51.8V55H3163.06V51.8H3160.06ZM3161.56 53.5H3129.56V56.5H3161.56V53.5ZM3256.54 1.432H3258.04V-0.0680008H3256.54V1.432ZM3256.54 47V48.5H3258.04V47H3256.54ZM3248.54 47H3247.04V48.5H3248.54V47ZM3248.54 8.344H3250.04V6.844H3248.54V8.344ZM3227.67 8.344V6.844H3226.17V8.344H3227.67ZM3227.67 47V48.5H3229.17V47H3227.67ZM3219.67 47H3218.17V48.5H3219.67V47ZM3219.67 1.432V-0.0680008H3218.17V1.432H3219.67ZM3255.04 1.432V47H3258.04V1.432H3255.04ZM3256.54 45.5H3248.54V48.5H3256.54V45.5ZM3250.04 47V8.344H3247.04V47H3250.04ZM3248.54 6.844H3227.67V9.844H3248.54V6.844ZM3226.17 8.344V47H3229.17V8.344H3226.17ZM3227.67 45.5H3219.67V48.5H3227.67V45.5ZM3221.17 47V1.432H3218.17V47H3221.17ZM3219.67 2.932H3256.54V-0.0680008H3219.67V2.932ZM3266.12 1.432V-0.0680008H3264.62V1.432H3266.12ZM3297.48 4.952L3296.52 6.10433L3296.52 6.11219L3296.53 6.11989L3297.48 4.952ZM3297.8 25.688L3298.83 26.7747L3298.84 26.7659L3297.8 25.688ZM3274.12 29.464V27.964H3272.62V29.464H3274.12ZM3274.12 47V48.5H3275.62V47H3274.12ZM3266.12 47H3264.62V48.5H3266.12V47ZM3274.12 8.088V6.588H3272.62V8.088H3274.12ZM3274.12 23H3272.62V24.5H3274.12V23ZM3266.12 2.932H3285.89V-0.0680008H3266.12V2.932ZM3285.89 2.932C3290.57 2.932 3294.05 4.04843 3296.52 6.10433L3298.44 3.79967C3295.27 1.16224 3291.03 -0.0680008 3285.89 -0.0680008V2.932ZM3296.53 6.11989C3298.95 8.06822 3300.26 11.0392 3300.26 15.32H3303.26C3303.26 10.3848 3301.72 6.44377 3298.42 3.78411L3296.53 6.11989ZM3300.26 15.32C3300.26 19.3457 3299.05 22.3839 3296.75 24.6101L3298.84 26.7659C3301.83 23.8721 3303.26 19.9983 3303.26 15.32H3300.26ZM3296.76 24.6014C3294.46 26.7911 3291.26 27.964 3286.98 27.964V30.964C3291.83 30.964 3295.84 29.6196 3298.83 26.7746L3296.76 24.6014ZM3286.98 27.964H3274.12V30.964H3286.98V27.964ZM3272.62 29.464V47H3275.62V29.464H3272.62ZM3274.12 45.5H3266.12V48.5H3274.12V45.5ZM3267.62 47V1.432H3264.62V47H3267.62ZM3272.62 8.088V23H3275.62V8.088H3272.62ZM3274.12 24.5H3285.25V21.5H3274.12V24.5ZM3285.25 24.5C3288.33 24.5 3290.92 23.842 3292.76 22.2651C3294.63 20.6511 3295.46 18.3031 3295.46 15.512H3292.46C3292.46 17.7129 3291.83 19.1089 3290.8 19.9909C3289.73 20.91 3287.97 21.5 3285.25 21.5V24.5ZM3295.46 15.512C3295.46 12.6991 3294.55 10.3556 3292.53 8.76647C3290.59 7.23076 3287.84 6.588 3284.55 6.588V9.588C3287.53 9.588 3289.48 10.1826 3290.67 11.1215C3291.8 12.0071 3292.46 13.3756 3292.46 15.512H3295.46ZM3284.55 6.588H3274.12V9.588H3284.55V6.588ZM3344 7L3342.89 8.00581L3342.9 8.01142L3342.9 8.01698L3344 7ZM3344 41.496L3345.11 42.513L3345.11 42.5077L3344 41.496ZM3312.32 41.496L3311.22 42.5072L3311.22 42.513L3312.32 41.496ZM3312.2 7.128L3311.07 6.13874L3311.07 6.13948L3312.2 7.128ZM3318.15 11.736L3319.31 12.6868L3319.31 12.6789L3318.15 11.736ZM3318.08 36.696L3316.91 37.6291L3316.92 37.6389L3318.08 36.696ZM3338.24 36.696L3337.07 35.7609L3337.07 35.7629L3338.24 36.696ZM3338.24 11.736L3337.07 12.6691L3337.08 12.678L3337.08 12.6867L3338.24 11.736ZM3328.32 1.844C3334.38 1.844 3339.19 3.90939 3342.89 8.00581L3345.12 5.99419C3340.8 1.21594 3335.15 -1.156 3328.32 -1.156V1.844ZM3342.9 8.01698C3346.65 12.0847 3348.58 17.4363 3348.58 24.216H3351.58C3351.58 16.8303 3349.46 10.7046 3345.11 5.98302L3342.9 8.01698ZM3348.58 24.216C3348.58 30.9952 3346.65 36.3717 3342.9 40.4843L3345.11 42.5077C3349.46 37.7456 3351.58 31.6021 3351.58 24.216H3348.58ZM3342.9 40.479C3339.16 44.5378 3334.3 46.588 3328.2 46.588V49.588C3335.06 49.588 3340.74 47.2435 3345.11 42.513L3342.9 40.479ZM3328.2 46.588C3322.04 46.588 3317.17 44.5356 3313.43 40.479L3311.22 42.513C3315.59 47.2457 3321.29 49.588 3328.2 49.588V46.588ZM3313.43 40.4849C3309.72 36.4193 3307.81 31.0453 3307.81 24.216H3304.81C3304.81 31.6374 3306.9 37.7834 3311.22 42.5071L3313.43 40.4849ZM3307.81 24.216C3307.81 17.6058 3309.68 12.2798 3313.32 8.11652L3311.07 6.13948C3306.86 10.9362 3304.81 17.0022 3304.81 24.216H3307.81ZM3313.32 8.11726C3316.97 3.96267 3321.91 1.844 3328.32 1.844V-1.156C3321.17 -1.156 3315.36 1.24799 3311.07 6.13874L3313.32 8.11726ZM3328.2 5.564C3323.58 5.564 3319.8 7.30854 3316.98 10.7931L3319.31 12.6789C3321.53 9.93413 3324.44 8.564 3328.2 8.564V5.564ZM3316.99 10.7853C3314.19 14.1969 3312.87 18.684 3312.87 24.088H3315.87C3315.87 19.1667 3317.07 15.4191 3319.31 12.6867L3316.99 10.7853ZM3312.87 24.088C3312.87 29.6056 3314.16 34.1731 3316.91 37.6291L3319.26 35.7629C3317.05 32.9896 3315.87 29.1517 3315.87 24.088H3312.87ZM3316.92 37.6389C3319.74 41.1355 3323.6 42.868 3328.32 42.868V39.868C3324.43 39.868 3321.46 38.4858 3319.25 35.7531L3316.92 37.6389ZM3328.32 42.868C3332.9 42.868 3336.65 41.1184 3339.42 37.6291L3337.07 35.7629C3334.89 38.503 3332.03 39.868 3328.32 39.868V42.868ZM3339.42 37.6311C3342.2 34.1396 3343.52 29.5977 3343.52 24.152H3340.52C3340.52 29.117 3339.32 32.9377 3337.07 35.7609L3339.42 37.6311ZM3343.52 24.152C3343.52 18.7088 3342.2 14.1989 3339.4 10.7853L3337.08 12.6867C3339.32 15.4171 3340.52 19.1845 3340.52 24.152H3343.52ZM3339.42 10.8029C3336.64 7.30528 3332.84 5.564 3328.2 5.564V8.564C3331.99 8.564 3334.9 9.93738 3337.07 12.6691L3339.42 10.8029ZM3390.07 1.432H3391.57V-0.0680008H3390.07V1.432ZM3390.07 8.152V9.652H3391.57V8.152H3390.07ZM3365.17 8.152V6.652H3363.67V8.152H3365.17ZM3365.17 20.248H3363.67V21.748H3365.17V20.248ZM3388.28 20.248H3389.78V18.748H3388.28V20.248ZM3388.28 26.712V28.212H3389.78V26.712H3388.28ZM3365.17 26.712V25.212H3363.67V26.712H3365.17ZM3365.17 40.152H3363.67V41.652H3365.17V40.152ZM3390.45 40.152H3391.95V38.652H3390.45V40.152ZM3390.45 47V48.5H3391.95V47H3390.45ZM3357.24 47H3355.74V48.5H3357.24V47ZM3357.24 1.432V-0.0680008H3355.74V1.432H3357.24ZM3388.57 1.432V8.152H3391.57V1.432H3388.57ZM3390.07 6.652H3365.17V9.652H3390.07V6.652ZM3363.67 8.152V20.248H3366.67V8.152H3363.67ZM3365.17 21.748H3388.28V18.748H3365.17V21.748ZM3386.78 20.248V26.712H3389.78V20.248H3386.78ZM3388.28 25.212H3365.17V28.212H3388.28V25.212ZM3363.67 26.712V40.152H3366.67V26.712H3363.67ZM3365.17 41.652H3390.45V38.652H3365.17V41.652ZM3388.95 40.152V47H3391.95V40.152H3388.95ZM3390.45 45.5H3357.24V48.5H3390.45V45.5ZM3358.74 47V1.432H3355.74V47H3358.74ZM3357.24 2.932H3390.07V-0.0680008H3357.24V2.932ZM3435.76 1.432L3436.82 2.49452L3439.39 -0.0680008H3435.76V1.432ZM3417.52 19.608L3416.46 18.5455L3415.56 19.4402L3416.29 20.4747L3417.52 19.608ZM3436.91 47V48.5H3439.81L3438.13 46.1333L3436.91 47ZM3426.99 47L3425.75 47.8487L3426.2 48.5H3426.99V47ZM3412.01 25.176L3413.25 24.3273L3412.23 22.8391L3410.95 24.1153L3412.01 25.176ZM3405.48 31.704L3404.42 30.6433L3403.98 31.0827V31.704H3405.48ZM3405.48 47V48.5H3406.98V47H3405.48ZM3397.55 47H3396.05V48.5H3397.55V47ZM3397.55 1.432V-0.0680008H3396.05V1.432H3397.55ZM3405.48 1.432H3406.98V-0.0680008H3405.48V1.432ZM3405.48 22.104H3403.98V25.7905L3406.56 23.1513L3405.48 22.104ZM3425.64 1.432V-0.0680008H3425.01L3424.57 0.384721L3425.64 1.432ZM3434.7 0.369477L3416.46 18.5455L3418.58 20.6705L3436.82 2.49452L3434.7 0.369477ZM3416.29 20.4747L3435.68 47.8667L3438.13 46.1333L3418.74 18.7413L3416.29 20.4747ZM3436.91 45.5H3426.99V48.5H3436.91V45.5ZM3428.23 46.1513L3413.25 24.3273L3410.78 26.0247L3425.75 47.8487L3428.23 46.1513ZM3410.95 24.1153L3404.42 30.6433L3406.55 32.7647L3413.07 26.2367L3410.95 24.1153ZM3403.98 31.704V47H3406.98V31.704H3403.98ZM3405.48 45.5H3397.55V48.5H3405.48V45.5ZM3399.05 47V1.432H3396.05V47H3399.05ZM3397.55 2.932H3405.48V-0.0680008H3397.55V2.932ZM3403.98 1.432V22.104H3406.98V1.432H3403.98ZM3406.56 23.1513L3426.72 2.47928L3424.57 0.384721L3404.41 21.0567L3406.56 23.1513ZM3425.64 2.932H3435.76V-0.0680008H3425.64V2.932ZM3474.13 1.432H3475.63V-0.0680008H3474.13V1.432ZM3474.13 8.344V9.844H3475.63V8.344H3474.13ZM3459.6 8.344V6.844H3458.1V8.344H3459.6ZM3459.6 47V48.5H3461.1V47H3459.6ZM3451.6 47H3450.1V48.5H3451.6V47ZM3451.6 8.344H3453.1V6.844H3451.6V8.344ZM3437.07 8.344H3435.57V9.844H3437.07V8.344ZM3437.07 1.432V-0.0680008H3435.57V1.432H3437.07ZM3472.63 1.432V8.344H3475.63V1.432H3472.63ZM3474.13 6.844H3459.6V9.844H3474.13V6.844ZM3458.1 8.344V47H3461.1V8.344H3458.1ZM3459.6 45.5H3451.6V48.5H3459.6V45.5ZM3453.1 47V8.344H3450.1V47H3453.1ZM3451.6 6.844H3437.07V9.844H3451.6V6.844ZM3438.57 8.344V1.432H3435.57V8.344H3438.57ZM3437.07 2.932H3474.13V-0.0680008H3437.07V2.932ZM3509.76 43.352L3510.77 44.4643L3510.77 44.4635L3509.76 43.352ZM3479.43 47H3477.93V48.5H3479.43V47ZM3479.43 1.432V-0.0680008H3477.93V1.432H3479.43ZM3487.43 1.432H3488.93V-0.0680008H3487.43V1.432ZM3487.43 18.84H3485.93V20.34H3487.43V18.84ZM3509.83 22.488L3508.82 23.6003L3508.82 23.6003L3509.83 22.488ZM3503.75 27.416L3504.79 26.3391L3504.79 26.3391L3503.75 27.416ZM3487.43 25.368V23.868H3485.93V25.368H3487.43ZM3487.43 40.472H3485.93V41.972H3487.43V40.472ZM3519.23 1.432V-0.0680008H3517.73V1.432H3519.23ZM3527.23 1.432H3528.73V-0.0680008H3527.23V1.432ZM3527.23 47V48.5H3528.73V47H3527.23ZM3519.23 47H3517.73V48.5H3519.23V47ZM3512.36 32.856C3512.36 37.0591 3511.1 40.1132 3508.76 42.2405L3510.77 44.4635C3513.88 41.6415 3515.36 37.6982 3515.36 32.856H3512.36ZM3508.76 42.2397C3506.43 44.3433 3503.02 45.5 3498.31 45.5V48.5C3503.49 48.5 3507.72 47.2247 3510.77 44.4643L3508.76 42.2397ZM3498.31 45.5H3479.43V48.5H3498.31V45.5ZM3480.93 47V1.432H3477.93V47H3480.93ZM3479.43 2.932H3487.43V-0.0680008H3479.43V2.932ZM3485.93 1.432V18.84H3488.93V1.432H3485.93ZM3487.43 20.34H3498.31V17.34H3487.43V20.34ZM3498.31 20.34C3503.07 20.34 3506.5 21.4986 3508.82 23.6003L3510.83 21.3757C3507.78 18.6134 3503.53 17.34 3498.31 17.34V20.34ZM3508.82 23.6003C3511.12 25.6829 3512.36 28.6921 3512.36 32.856H3515.36C3515.36 28.0599 3513.91 24.1571 3510.83 21.3757L3508.82 23.6003ZM3507.36 33.048C3507.36 30.3476 3506.55 28.0468 3504.79 26.3391L3502.7 28.4928C3503.76 29.5159 3504.36 30.9697 3504.36 33.048H3507.36ZM3504.79 26.3391C3503.03 24.6316 3500.65 23.868 3497.86 23.868V26.868C3500.1 26.868 3501.65 27.4697 3502.7 28.4928L3504.79 26.3391ZM3497.86 23.868H3487.43V26.868H3497.86V23.868ZM3485.93 25.368V40.472H3488.93V25.368H3485.93ZM3487.43 41.972H3497.99V38.972H3487.43V41.972ZM3497.99 41.972C3500.82 41.972 3503.22 41.3055 3504.92 39.7073C3506.63 38.0935 3507.36 35.7771 3507.36 33.048H3504.36C3504.36 35.2683 3503.77 36.6638 3502.86 37.5247C3501.93 38.4012 3500.4 38.972 3497.99 38.972V41.972ZM3519.23 2.932H3527.23V-0.0680008H3519.23V2.932ZM3525.73 1.432V47H3528.73V1.432H3525.73ZM3527.23 45.5H3519.23V48.5H3527.23V45.5ZM3520.73 47V1.432H3517.73V47H3520.73ZM3531.94 55H3530.44V56.5H3531.94V55ZM3531.94 51.8V50.3H3530.44V51.8H3531.94ZM3563.94 51.8H3565.44V50.3H3563.94V51.8ZM3563.94 55V56.5H3565.44V55H3563.94ZM3533.44 55V51.8H3530.44V55H3533.44ZM3531.94 53.3H3563.94V50.3H3531.94V53.3ZM3562.44 51.8V55H3565.44V51.8H3562.44ZM3563.94 53.5H3531.94V56.5H3563.94V53.5Z" fill="#B1170F"/>
</svg>
