<svg width="31" height="31" viewBox="0 0 31 31" fill="none" xmlns="http://www.w3.org/2000/svg">
<path d="M15.3785 7.63867C11.0141 7.63867 7.49369 11.1455 7.49369 15.4932C7.49369 19.8408 11.0141 23.3477 15.3785 23.3477C19.743 23.3477 23.2633 19.8408 23.2633 15.4932C23.2633 11.1455 19.743 7.63867 15.3785 7.63867ZM15.3785 20.5996C12.5581 20.5996 10.2523 18.3096 10.2523 15.4932C10.2523 12.6768 12.5512 10.3867 15.3785 10.3867C18.2058 10.3867 20.5047 12.6768 20.5047 15.4932C20.5047 18.3096 18.1989 20.5996 15.3785 20.5996ZM25.425 7.31738C25.425 8.33594 24.6015 9.14942 23.5859 9.14942C22.5634 9.14942 21.7468 8.3291 21.7468 7.31738C21.7468 6.30566 22.5702 5.48535 23.5859 5.48535C24.6015 5.48535 25.425 6.30566 25.425 7.31738ZM30.6472 9.17676C30.5305 6.72266 29.9678 4.54883 28.163 2.75781C26.3651 0.966797 24.1829 0.40625 21.7193 0.283203C19.1802 0.139648 11.5699 0.139648 9.03085 0.283203C6.57413 0.399414 4.39191 0.959961 2.58712 2.75098C0.782326 4.54199 0.226477 6.71582 0.102955 9.16992C-0.0411542 11.6992 -0.0411542 19.2803 0.102955 21.8096C0.219614 24.2637 0.782326 26.4375 2.58712 28.2285C4.39191 30.0195 6.56727 30.5801 9.03085 30.7031C11.5699 30.8467 19.1802 30.8467 21.7193 30.7031C24.1829 30.5869 26.3651 30.0264 28.163 28.2285C29.961 26.4375 30.5237 24.2637 30.6472 21.8096C30.7913 19.2803 30.7913 11.7061 30.6472 9.17676ZM27.367 24.5234C26.8317 25.8633 25.7955 26.8955 24.4437 27.4355C22.4193 28.2354 17.6156 28.0508 15.3785 28.0508C13.1414 28.0508 8.33089 28.2285 6.31337 27.4355C4.96835 26.9023 3.93214 25.8701 3.39001 24.5234C2.58712 22.5068 2.7724 17.7217 2.7724 15.4932C2.7724 13.2646 2.59398 8.47266 3.39001 6.46289C3.92527 5.12305 4.96149 4.09082 6.31337 3.55078C8.33775 2.75098 13.1414 2.93555 15.3785 2.93555C17.6156 2.93555 22.4261 2.75781 24.4437 3.55078C25.7887 4.08398 26.8249 5.11621 27.367 6.46289C28.1699 8.47949 27.9846 13.2646 27.9846 15.4932C27.9846 17.7217 28.1699 22.5137 27.367 24.5234Z" fill="white"/>
</svg>
