<svg width="33" height="23" viewBox="0 0 33 23" fill="none" xmlns="http://www.w3.org/2000/svg">
<path d="M32.1162 2.0459C32.3411 1.19141 32.1162 0.5625 31.0346 0.5625H27.4556C26.5442 0.5625 26.1249 1.10254 25.9001 1.7041C25.9001 1.7041 24.0772 6.70117 21.5008 9.94141C20.6683 10.8779 20.2855 11.1787 19.8298 11.1787C19.6049 11.1787 19.2586 10.8779 19.2586 10.0234V2.0459C19.2586 1.02051 19.0034 0.5625 18.2499 0.5625H12.6232C12.052 0.5625 11.7117 1.04102 11.7117 1.48535C11.7117 2.45605 12.9999 2.68164 13.1336 5.41602V11.3496C13.1336 12.6484 12.927 12.8877 12.4713 12.8877C11.256 12.8877 8.30287 7.87012 6.55287 2.12793C6.20044 1.01367 5.85408 0.5625 4.93655 0.5625H1.35756C0.336724 0.5625 0.130127 1.10254 0.130127 1.7041C0.130127 2.77051 1.3454 8.06836 5.78724 15.0684C8.74644 19.8467 12.9148 22.4375 16.7065 22.4375C18.9852 22.4375 19.2647 21.8633 19.2647 20.8721C19.2647 16.3057 19.0581 15.875 20.2004 15.875C20.7291 15.875 21.6405 16.1758 23.7673 18.4795C26.1978 21.2139 26.5989 22.4375 27.96 22.4375H31.539C32.5598 22.4375 33.0763 21.8633 32.7786 20.7285C32.098 18.3428 27.4982 13.4346 27.2916 13.1064C26.7629 12.3408 26.9148 11.999 27.2916 11.3154C27.2977 11.3086 31.6666 4.39062 32.1162 2.0459Z" fill="white"/>
</svg>
